<svg id="Livello_1" xmlns="http://www.w3.org/2000/svg" viewBox="0 0 1143 35"><style>.st0{fill:#22D3EE}</style><title>brushstroke-oriz-blue</title><path class="st0" d="M101.1 4.5l.2-.3-1-.3c-.1.1-.1.2-.2.3.2.2.6.4 1 .3zm16 3.2c-.1-.1-.3-.1-.3.1.1.1.2.1.3-.1zm15.1 3.4l-.2-.1v.1h.2zm-26.1-2.3l-.5.3.2.3c.3-.1.6-.3.7-.5 0-.3.1-.6.1-.9l.5.1.5-.3c1.4.2 2.8.2 4.2-.2-.2-.2-.3-.4-.5-.6-.1-.2-.2-.5-.5-.5l-.7.4-1.5-.4-1 .3-.5.6c-.2 0-.4 0-.4-.2-.1-.2.2-.3.3-.6-.2.1-.4.1-.4.1-.2.2-.5.3-.7.3 0 0-.1.1-.1.2v.2l-.5.6.8.8zm10.7.8c.1-.2-.1-.4-.3-.5-.2.2-.3.3-.5.4-.2.1-.5.2-.7.3.5.3 1 .2 1.5-.2zm.2-5.5v.3h.1l-.1-.3zm13.5 5.8c.2 0 .3 0 .5-.1l-1.1-.8-.5.1c.1.2.2.4.3.7.3 0 .6.1.8.1zm-1.2 1.2c-.3-.1-.3-.1-.5 0 .1.1.3.1.5 0zm-3.1-1.7h-.4c.2.3.2.3.4 0zm3.6 1.7h-.1.1zm-29.4-3.9c-.2-.1-.4-.1-.5 0v.3c.3 0 .5-.1.5-.3zm18.8 2.8l.3-.4h-.5l.2.4zm.2-1.7c.5.1.4-.6.8-.5l.6.3.4-.3c.1-.5-.2-1-.7-1.2l-.5.5-1-.3-.8.6.7.3.5.6zm6.4 2l-.1-.1.1.1zm-.2-.2l.1.1c0-.1 0-.2-.1-.1zm-16.3-.4l-.6-.6-.2.5.8.1zm-42.9 2.7s0 .1 0 0l.2.1s-.1-.1-.2-.1zm11.8-4.9c-.1-.2-.2-.1-.4 0 .1.1.2.1.4 0zM98.3 7c-.2-.1-.5-.2-.7 0l-.4.8.9-.1c.1-.3.1-.5.2-.7zm-8 2.2l.3-.3.4.1.8-.4c-.2-.2-.3-.4-.5-.6-.2-.1-.2 0-.3 0l-1 .4-.2.5c.1.2.2.4.5.3zM68 11.6s0-.1 0 0h-.2.2zm30.7-2.9c-.2.2-.2.3 0 .5.3-.2.3-.4 0-.5zM92.9 6h-.1c-.1 0-.1.1 0 .1s.1 0 .1-.1zm64.5 6.5s0-.1 0 0c-.1-.1-.2-.1-.3-.1v.1h.3zM69.7 11zm29.7-1.9zm-12.3.7c.1-.2.2-.3.4-.5-.3-.1-.3-.1-1.3.6l.8.4c0-.2.1-.4.1-.5zm86.2 4l.2-.3-.8-.4c-.3.3-.7.3-1 .1-.2 0-.3 0-.3.3.3.1.6.2.9.2.3 0 .7 0 1 .1zm-26.6-2.5h-.3v.1l.3-.1zm79.8.2c-.2-.3-.2-.3-.4 0 .2.1.3.2.4 0zm-83.8-2.6h-.3V9l.3-.1zm77.9 3.6c.1 0 .1-.1 0-.1h-.1v.1h.1zm-21.9.3c-.2-.2-.4-.2-.7 0 0 .2.1.3.1.5.4-.1.6-.2.6-.5zm.3-.8c0-.2-.1-.3-.3-.3 0 .1-.1.2-.1.3s.2.1.4 0zm9.2 2l.8-.3c.7.3 1.5.1 2.2.3.1.2.1.5.4.6 0-.2.1-.4.1-.6l.4-.4c-.5-.2-1-.1-1.4.1-.2-.1-.4-.1-.6-.2h-1v-.6l-.5-.2c.1-.4.5-.4.8-.5.1-.2.2-.3.1-.5-.8-.3-1 .4-1.2.7-.5.3-.8-.3-1.2.2-.1.3-.2.6-.3 1.1l.8.1.6.2zm-47.8-1.7l-.2-.1v.1h.2zm66.6-.5l-.1-.1c0 .1 0 .1.1.1-.1 0-.1 0 0 0zm-64.4 1.6l-1.2-.2s-.1 0-.1.1v.2c.5.1.9.1 1.3-.1zm11.6.2h-.4v.1l.4-.1zm-22.9-2.8zm6.8.9l-.3-.3c0 .2-.1.3-.1.4.1 0 .3.1.4-.1zm-1.7.6l-.1-.1-1.2-.2-.1.3c.5.1 1 .1 1.4 0zm-2.7-.3c.3.2.6.2.8 0-.2-.2-.5-.2-.8 0zm.5-1.3h-.7l.4.2c.3.2.3.2.3-.2zm26.9.4c-.3-.3-.5-.1-.8 0-.2.3-.2.7-.1 1 .2-.6.8-.5.9-1zm55-.8zm2.2.1c.2.1.3-.1.3-.2s-.3-.2-.4 0 0 .1.1.2zm-6.5 3.1s-.1-.1 0 0c-.1-.1-.1-.1-.2 0h.2zm-97.9-4.1c-.3-.2-.7-.2-1 0 .3.2.6.2 1 0zM278 11l-.4.4.9-.1-.5-.3zm-49.7.9l.5-.5c.1-.2 0-.1 0-.2l-.6-.2-.3.3.1.7c.1 0 .2 0 .3-.1zM188 14l.3.3c.1-.4.1-.4-.3-.3zm-54.7-3.9h.3V10l-.3.1zm.3-2.2h-.3V8l.3-.1zm55.9 3.3h-.3v.3c.3.1.4 0 .3-.3zm-47.4.1c.3.1.6.1.9.2.4.1.8.1 1.2.1.5-.1 1.1-.2 1.6-.3 0 0 .1-.1.1-.2-.3-.3-.5-.1-.7 0l-1.1-.2-.2-.3-.3.4c-.4 0-.8-.1-1.2-.2-.4-.2-.7 0-1 0-.3 0-.7-.4-1.1-.1.5.3.5.3 1.5.4l.3.2zm-2.2-.7c-1.1-.2-2.2-.1-3.3.1.8.2 1.7.2 2.5.2l.8-.3zm35.9 2.6l-.1-.1-.7.2c-.1.1-.1.2-.1.4h.5l.4-.5zm15.5-.1l1.1.1c.1-.3.3-.5 0-.8h-.6l-.4-.6-1.2.8c.1.2.1.4.2.6.2-.1.6-.1.9-.1zm-13.1-1.4c-.2.1-.1.2 0 .3.1-.1.2-.2 0-.3zM284 10.1h-.3v.1l.3-.1zm588.1 4.5h-.3l.4.3c-.1-.1-.1-.2-.1-.3zm-101.9 3c.4-.6.4-.6-.2-1-.1.2-.2.3-.3.5-.1.1-.4.1-.4.4.2.2.5.1.9.1zm-2.4 0c.2-.1.5-.3.8-.4l-1-.3-.4.3c0 .2-.2.5.2.8 0-.1.2-.2.4-.4zm-25 2.5c-.1-.3-.1-.3-.6-.2.1.2.3.3.6.2zm17-2.7c0-.1-.1-.1-.2 0s0 .1.1.2c.1 0 .1-.2.1-.2zm14.4-.1l-.2-.1v.2l.2-.1zm-26.1 3.8h-.3l.4.4c-.1-.2-.1-.3-.1-.4zm.7-.9c-.4-.2-.7-.3-1 0 .3.2.7.2 1 0zm1.9-1.7h.4c-.3-.1-.4-.2-.4 0zm33.6.9zm31.9-.7c-.1 0-.1-.1-.2-.1l-.1.1h.3zm-14.1 1.6c-.4-.3-.4-.3-1.1-.2v.2c.6.3.6.3 1.1 0zm41.6-2.8l.2-.3-.6-.2-.3.3c.2.1.4.3.7.2zm20.3-1c.3-.3.4-.8.2-1.2l-.3.1.1.4c-.1.2-.2.3-.3.5.1.2.1.4.3.2zM792.7 20c-.3-.2-.7-.2-1 0l.8.3.2-.3zm6.9.2v.3h.7c-.4-.4-.4-.4-.7-.3zm-14.4-1.5l-.1.3h.1v-.3zm13.8 1.7c-.2-.1-.1-.4-.4-.4 0 .4 0 .4.4.4zm-62.7-.4c.2-.1.4-.3.3-.5-.7-.2-.7-.2-1-.1-.3.1-.3.2-.2.5l.9.1zm-2.4.6l-.4-.1c.1.2.2.3.4.1zm-1.4-.5zm6.2.3h.5v-.2s-.2-.2-.3-.2c-.3 0-.6-.1-.9-.3 0 0-.1 0-.2.1l.4.7c.2 0 .3-.1.5-.1zm-6.3.3l1-.2-.3-.5h-.6c-.1.2-.2.3-.3.5l.2.2zm1.2.4l-.1.3.6.3.3-.3c-.3-.1-.5-.4-.8-.3zm-6.7-2.9l-.3-.2c-.1.1-.1.2-.2.3.1.1.2.2.3.4 0-.3.3-.3.2-.5zm1.6 1.2l-.5.4c.5-.1.7.3 1.1.1v-.3l.8-.2-1.8-.6-.3.2v.3l.7.1zm4 .6l-.2-.4-1.1-.3c-.1 0-.3-.1-.4.1l.6.3c.3.2.7.2 1.1.3zm5-.1c-.2-.1-.3-.2-.5.1.1 0 .3.1.5-.1zm-2.9-.5c-.2-.1-.4-.2-.6 0l.3.3.3-.3zm131.5-4.3l-.1.3c0 .1.1.1.2.1 0-.1-.1-.2-.1-.4zm-133.5 4.1c.1-.3.1-.3-.3-.6 0 .3.1.6.3.6zm5.9 2.3c0-.1-.1-.2-.1-.4 0 0-.1 0-.3.1l.4.3zm-4-.8l.1.1c.6.2 1 0 1.4.3v.2c-.2.3-.6-.1-1.1.2l1.9.4.1-.3c-.8-.5-1.3-1.3-2.3-1.6l-.9.1.7.3c.2.1.1.2.1.3zm-1.3-1.2c0-.1 0-.3-.1-.3-.1.2 0 .3.1.3zm.1.2l-.1-.1.1.1zM899.5 17c.1 0 .1-.1.2-.2l-.2-.3-.6.1-.6.1.3.6.9-.3zm88.6-.9h-.5c.2.2.3.1.5 0zm-29.7 1.3l-.8.2.9.4c.2-.3.1-.5-.1-.6zm32.8-.6l.2.1c0-.1.1-.2.1-.3 0 0-.1-.1-.2-.1s-.2.1-.1.3c-.1 0-.1 0 0 0zm-23.9.3zm-43.3.4c0 .1 0 0 0 0zm43.2-.3c-.2.1-.2.2 0 .5v-.5zm-45.2.2zm1 .2c-.3-.4-.6-.4-1-.2.3 0 .6.4 1 .2zm41.8-.3zm-2.4.3s0-.1 0 0c.1-.2.1-.2.1-.3l-.2-.3c-.3.2-.8.1-1.2.4-.1.2-.2.4-.4.7.1.1.2.1.3.1.6-.2.9-.6 1.4-.6zm28-1.3c.1-.2.1-.3.2-.6h.5c.2 0 .3.1.6.1-.1-.5-.4-.6-.7-.8l-.6.1-.9.8c.5 0 .8.1.9.4zm-30.7 2.3c-.1-.1-.2-.2-.3 0-.1.2 0 .2 0 .3.2-.1.3-.1.3-.3zm.5.7l-.3-.1v.1h.3zm-1.1-.5l-.3-.1c-.1.1-.2.2-.2.4.2 0 .5 0 .5-.3zm-.9.6c.2 0 .3-.2.4-.3-.2 0-.4 0-.4.3zm40.6-4.5c-.2.1-.3.2-.3.4l.2.1c.2-.2.2-.2.1-.5zm84 4.8l-.3-.3-.9.2c.5.1.8.4 1.2.1zm-782.4-9.1c-.2-.1-.3-.2-.4 0-.1.2 0 .2.1.4l.3-.4zm717.4 5l-.3-.1.3.1c-.1 0 0 0 0 0zm62.4 4.7l-.3.4c.1 0 .2 0 .3-.1v-.3zm-186-3.7c-.3-.1-.6-.2-.9.2.3.1.5.1.7.1.1 0 .3-.1.2-.3zm-18.8 1.3c.1-.1.2-.2 0-.4-.1 0-.2 0-.2.1 0 .2.1.3.2.3zm3-.4c.4.2.8.3 1.2.2.1 0 .1 0 .1-.1l-.5-.7-1.5.2c-.1.2-.2.4-.2.6.4.1.6-.2.9-.2zm-1.5-1.2zm27.8.7l-.7.4.8-.1-.1-.3zm-35.4.2c-.1-.3-.4-.3-.7-.4.1.2.1.2.1.3.2.1.4.3.6.1zm42 .6v-.3h-.1c0 .1 0 .2.1.3zm10.6-.4c-.1 0-.2 0 0 .1v-.1zm-194.7 1.8l.2-.3-1.5-.3c0 .1.1.3.2.3l1.1.3zm175.9-1.9c-.5-.5-1.3-.3-1.8-.6-.1.1-.1.2-.2.4l.9.5c.4 0 .8.1 1.1-.3zm98.8-2.4h-.2v.1l.3.1-.1-.2zm12.5.2c-.3-.2-.7-.2-1 0l1 .3v-.3zm71.8 4.8zm-601.1-5c.2.2.5.2.8 0-.2-.2-.5-.2-.8 0zm11.5-1.5c-.4-.4-.6-.4-1.1 0 .3.2.7.2 1.1 0zm-18 .7h-.5c0 .1 0 .2.1.4l.4-.4zm6.4-1.2c.3.2.5.6 1 .4l.2-.6c-.8-.4-1.6 0-2.4-.1l-.3-.4-.5.5s0 .1.1.1l1.9.1zm.6 3.5h.3v-.1h-.3v.1zm-8-2.2c-.4-.1-.8-.1-1.2-.1-.2.1-.3.2-.2.4h1.4c-.1-.1-.1-.2 0-.3zm.4-1.7l-.2-.2-2 .1c-.2 0-.4-.1-.5.2l1.4.5 1.3-.6zm.2 4.4l.6-.3c-.6-.3-.7-.2-.6.3zm12.1-2.8c-.2 0-.4-.1-.6.1.3.1.3.1.6-.1zm4.8 1.2l-.1-.3-.3.3c.2.2.3.2.4 0zm0-1.9l-.1-.3-.1.1v.2h.2zm-4.7.5s0 .1-.1.1c.1 0 .2 0 .1-.1zm6.4 1.8l.5-.6-.9-.3c0 .6 0 .6.4.9zm-7.8-2.9v-.2h-.9l.4.4.5-.2zm-.5 2.6c.1.1.1.1.1 0h-.1c0-.1 0-.1 0 0zm-12-.4l.1.2c.2 0 .4-.1.5-.3-.3-.2-.5-.1-.6.1zm11.6-1.6h-.3v.1l.3-.1zm-30.2 1.7c-.3-.1-.5 0-.6.3.3.1.5-.1.6-.3zm-61.2-2.6zm2.3.2c-.4-.1-.4-.1-.3.3.2-.1.3-.1.3-.3zm59.9 2.8h.8c.2-.1.4-.2.3-.5-.6-.1-1.3.1-1.8.4.2.4.4.1.7.1zm-131.4-4c-.2-.3-.2-.3-.4 0 .2.1.3.1.4 0zM460.7 14v-.7l-.5-.4-.5.9c-.2.1-.6.1-.7.4.7.3 1.1 0 1.7-.2zm-64.6-1.8h-.3v.1l.3-.1zm329.5 6.5l-1.1-.3s-.1 0-.2.1c.4.4.9.5 1.3.2zm-264.1-6c-.3-.1-.6-.1-.8.1.2.1.5.1.8-.1zm11.4 2c.1-.2.4-.2.3-.5-.2-.2-.4 0-.7.1l-1 .1c.6.2 1 .4 1.4.3zm3.5 1.2l-.4-.2-.8.4c.5.2.8-.1 1.2-.2zm-1.3-1.7c-.5-.2-1.1-.1-1.6.1.5.3.5.3 1.6-.1zm-1.4-1.9l-.1-.2-.8.1.1.4.8-.3zm-3.1 2.4c-.4-.4-.4-.4-.8-.2.1.2.5.3.8.2zm-1.9-2.3v-.1c-.1-.1-.3 0-.4.1.2.2.3.1.4 0zm1.3-.2c-.2 0-.4.1-.4.3v.1l.2.2c.2-.2.4-.3.2-.6zm-74.8.1c-.3-.1-.3-.1-.6.2l.3.2c.2-.1.4-.1.3-.4zm314 4.1l-.1-.3-.5.1c.2.3.5.3.6.2zm-1.8.1l-.6-.1.4.4.2-.3zm1.9.6c.1-.3.1-.3-.1-.6 0 .2-.1.4.1.6zm-37.5-2.2h.5c-.4-.3-.4-.3-.5 0zm39.1 2.3h-.7c.2.2.5.2.7 0 0 .1 0 .1 0 0zm-37.5-2.1c-.1.1 0 0 0 0zm11.9.2l-.4.5c.5.1.6-.1.4-.5zm32.3 2.5l-.3-.5c-.3-.1-.5-.2-.7-.2-.2-.1-.3-.4-.6-.2l.2.6c.4 0 .6.3.9.5.2-.1.3-.1.5-.2zm-6.2-.4c.1.2.2.2.4 0-.2-.2-.2-.2-.4 0zm12.7 1v-.5c0-.1-.1-.1-.2-.4l-.4.7c.3.3.3.3.6.2zm-90.9 2.4h.6c-.2-.2-.3-.4-.4-.6-.1-.2-.1-.5-.4-.5l-.2.2v.7c.1 0 .2.1.4.2zm85.8-3.3l-.3-.1v.1c.1.1.1.1.3 0-.1.1 0 .1 0 0zm-5.6-.3l.1.1-.6.2.3.3.4-.1.6.2.3-.6c0-.2 0-.4-.1-.6l-.7-.2-.4.3-.5-.3c-.4 0-.9-.1-1.3-.1 0 0-.1.1-.1.2l.4.3c.5-.2 1 .2 1.6.3zm1.7.4c.1 0 .1-.1 0-.1h-.1v.1c-.1-.1.1 0 .1 0zm-217.2-4.2l-.4-.2c0 .1-.1.2-.1.2.1.2.1.2.5 0zm218.3 4c-.1 0-.3-.1-.4.1.2.2.3.1.4-.1zM508 14.6l-1 .4h1v-.4zm14.7 1.3l-.1-.1-.2.2c.2.2.3.1.3-.1zm-.8-.6c-.1-.2-.3-.3-.5-.3 0 .1-.1.2-.1.4.3 0 .5.2.6-.1zm1.3-.9l-.6-.2c-.2.3-.5.4-.2.8l.8-.6zm-21.2 0c-.2-.2-.4-.2-.6 0 0 .1.1.2.1.3.3 0 .5 0 .5-.3zm21.8 0zm-18.6.2c0-.1 0-.2-.1-.2s-.1-.1-.2-.1l-1.5.3c.6.2 1.2.2 1.8 0zm-2.3-.6v-.2l-.4.1v.1h.4zm25.2.4l-.3.3c.4 0 .5 0 .3-.3zm26.5 1.9c-.4-.1-.8-.2-1.1.3.4 0 .8.2 1.1-.3zm67.2 3.5c-.1-.2-.1-.4-.3-.3-.2.1-.1.2 0 .2s.2.1.3.1zm4.3.1l-.5-.1-.1.1s0 .1.1.2c.3 0 .4-.1.5-.2zm1.9-.6c-.3.4-.7.3-1.1.4l.5.4c.3-.2.6-.2.6-.8zm-91.7-4.5h-.3v.1l.3-.1zm9.3 1.1l-.9-.3-.3.3.9.3.3-.3zm-3.6.7c-.2-.2-.3-.3-.5 0 .1.1.3.2.5 0zm-325.7-4.2zm505.9 5.7c-.4-.2-.8-.3-1.2-.4l-.2.1c-.1 0 0 .1 0 .1s0 .1.1.1c.5.1 1 .5 1.5.4-.1-.1-.1-.2-.2-.3zm-495.1-5.8zm3.1 2.4l.4.1c0-.2-.1-.2-.4-.1zm139.4-2.5l-.7.6v.3l.7-.3v-.6zm-142.5 0s0 .1-.1.1c.1 0 .2 0 .1-.1zm429.6 3.3l.1-.1-.1.1zm40.9.8l.3-.2c.2.2.4.3.7.5.2.2.2.1.4.2l.5-.9-1.2-.4-.6.2c-.3-.1-.5-.4-.9-.1l.2.4.4.4.2-.1zm-34.8-1.4zm55.3 3.1c-.2.3 0 .6.1.8l.3-.2-.4-.6zm-75.4.2c-.2.1-.2.3-.1.5l.4-.1c0-.2 0-.4-.3-.4zm-160.5-4c0 .1-.1.2-.1.3.1.4.4.4.7.4l.2-.4-.8-.3zm148.1 5.1zM403.2 13l.4.3c.2 0 .3-.2.4-.4l-.4-.2-.4.3zM623 19.8zm.7-.1c0-.1 0-.2-.1-.3-.3 0-.5.1-.6.4.3.1.6 0 .7-.1zm-407.4-7.5l-.1.2c.1 0 .3 0 .1-.2zm655 9.7c.1 0 .1.1.2.1 0 0 .1 0 .1-.1h-.3zm-141 .5c-.2-.2-.4-.3-.6 0l.2.3.4-.3zM340.6 26c0 .1 0 .1.1.2 0 0 .1 0 .1-.1 0 0-.1-.1-.2-.1.1-.1 0 0 0 0zm506.6-3c0 .1.1.1.1.1.1 0 .1-.1 0-.1-.1-.1-.1 0-.1 0zm-6.5 1.3h.9l-.7-.4-.2.4zm-490.9.4c.1.2.1.3.4.2v-.3l-.4.1zm379.6-1.4h1c-.5-.4-.5-.4-1 0zm45 .3c.1.2.3.3.5.2-.1-.3-.2-.4-.5-.2zm-433.3 2.5l.4.3c-.2-.6-.2-.6-.4-.3z"/><path class="st0" d="M1140.2 18.2c-1 .1-2.1.1-3.1 0-1.1-.1-2.1-.1-3.2 0-.4 0-.9.1-1.3.1-1.3-.3-2.6-.4-3.9-.2l-.5.3c-.6-.2-1.3-.2-1.9 0l-.4-.2-.5.2-.7-.2h-1.4c-.8 0-1.7 0-2.5.3l-.4-.2c-.7 0-1.3-.1-1.9 0-.7-.1-1.3 0-2 .1-.6.1-1.3.1-1.9 0l-.8.3c-.7 0-1.1-.1-1.6-.1-.7-.1-1.3 0-2 .2-.4-.3-.8.1-1.2 0-.3 0-.7 0-1 .1-.4.1-.8.2-1.1.3l-.6-.2-.3.3c-.1-.1-.2-.1-.3-.1h-3.5c-.1 0-.2.1-.2.1l-.4.6c-.2-.1-.3-.2-.4-.4l-.8.2-.9-.2-.9.7c-.2 0-.5.1-.7.1-.2 0-.4-.1-.6-.2-.1.2-.2.3-.3.4l-1.2-.4-.5.5v.3l-1 .3-1-.1-.9-.8-.2-.5-1.2.5-.3.4-1-.5c.2.4.2.7.1 1-.1.1-.1.2-.2.3h-.8l-.4-.6c-.6-.2-1.2-.1-1.7.2l-.7-.3-.7.5-.5-.3c-.4-.4 0-.9-.6-1l-.5.9-.4.2-1-.4c-.3.1-.7-.1-.9.1-.3.2-.3.4-.4.6l-1.1.1-1.2.1c0-.3-.1-.5-.1-.8-.8.7-1.9.7-2.7 0-1 .1-1.9-.2-2.7-.9-.4.2-.8 0-1.3 0h-1.4l-1.5.9-.6-.1-.3-.3.4-.4-.3-.3-.7.4-2.4.3-.3-.3-1-.2-.3.2-1.9-.2-.6.5h-2.5c-.3 0-.6-.1-.9-.3-.1-.1-.1-.3-.4-.3-.3 0-.4-.2-.6-.3-.2.1-.4.2-.6.2-.2 0-.3.1-.5.1l-.5.4-.5-.7-.6.3c-.5-.2-.6-.6-.7-.9 0-.2.1-.3.1-.4l-1-.2-.4.4-.2.7c-.3.2-.6.4-1 .4-.3 0-.7-.1-1-.2l-.5.2-2-.3-.3-.5.8.1.2-.4-.9-.2-.2-.4-.6.8-.8-.2-.4.2c-1.2-.4-2.4-.1-3.5-.4l-1.4 1c-.9-.4-1.8-.6-2.8-.6-.2 0-.3 0-.5-.1l-1.3-.2-.6-.1c.1-.2.1-.4.1-.6l-.7-.1c-.3-.1-.3-.4-.6-.4l-.5.4c-.7.2-1.4-.3-2.1-.2l-.7.5-1.2-.1-.7-.6.2-.6-.8-.2-1 .5c-.4 0-.9.1-1.4.1-.5 0-.9-.1-1.5-.1-.1-.2-.3-.4-.4-.7-.3-.1-.6-.1-.9.1 0 .2.2.4-.2.6-.5 0-1 .1-1.4.2-.2.1-.4.1-.6 0-.5-.2-1.1-.2-1.7-.2-.1 0-.3-.1-.4-.1v-.7c0-.2-.1-.4-.4-.5-.3.7-.5 1-.9 1.1l-.3-.2.1-.6c-.3 0-.6.1-.8.4l-1.3-.1-.8-.4c-.6.1-1.1.2-1.6.5l-1.1.1c-.1-.2-.1-.3-.2-.5 0-.1-.1-.3-.1-.5s-.1-.1-.2-.1l-.6.6c-.3-.1-.7-.2-1-.3-.6.1-1.2-.2-1.5-.7l-.5.2-.8-.2-.5.1-.5-.4-.7.7.3.4c-.5.4-.5.4-.9.2V15c-.4-.1-.5 0-.6.3l.4.6c-.2.3-.5.5-.8.5-.1.2-.2.3-.3.4l-1.3.3-.9-.3c-.1-.2-.1-.4-.2-.6-.3 0-.5.2-.8 0-.3-.2-.5.2-.8.2-.3 0-.5.1-.8.2l-.7-.4c-.2 0-.4-.1-.6.2l.4.6c-.2.1-.3.3-.4.3-.6.1-1.2.1-1.8 0-.1 0-.2-.2-.3-.3l.3-1.2.3-.3-.3-.3-1 .3c-.1 0-.1.1-.2.2s-.2.2-.2.3l.2.5c-.1.1-.2.2-.3.4l-1.2-.3c-.1 0-.2 0-.3.1l-.6.8-.7.2-.9-.3-.3-.5-.7-.1c-.7.2-1.4.3-2.1.3-.3.3-.7.5-1.2.5-.3-.2-.5-.6-.5-.9l-1.2 1.2-.3.1c-.7-.2-1.4-.1-2-.6-.1-.1-.2-.2-.3-.4l-.7-.3h-1.5l-.5.4-.9-.6c0 .1-.1.3-.1.4-.1.1-.2.3-.2.4l-.7-.2-.3-.4c-.4 0-.8.1-1.2.1-.1 0-.2.1-.2.2l-.8.4-.5-.2-.9.1c-.1.2-.2.5-.4.8-.4-.1-.6.3-1.1.1 0-.2-.1-.3-.2-.6l-1.1-1-.5.4h-.5l-.4 1.1-.6-.4-.5.3-.7-.2c-.8.4-.8.4-.8.6h.4c.1.2.3.4.2.7l-.6.4c-.4-.1-.8-.1-1.2-.1-.4.1-.9 0-1.3-.3v-.3l.5-.4v-.5l-1.1.6c0 .2-.1.4-.1.6l-.7.4c-.6-.2-1.2-.2-1.8-.2l-.3.6h-1c-.3.1-.6.1-.9 0h-.9c-.1-.1-.2-.3-.2-.4-.1-.2-.1-.4-.2-.7l-.7.7c-.2-.1-.3-.3-.4-.4l.2-.5-.8-.3c-.2.3-.4.5-.6.8-.2.2-.5.4-.7.6-.4.1-.8.1-1.3.2-.1 0-.2-.1-.3-.1s0-.2-.1-.3c-.5 0-.8-.6-1.3-.6-.2.4-.7.6-1.1.6-.1-.2-.2-.4-.3-.7h-.5c-.1.6-.6.8-1 1.1l-1.6.3c-.1-.3-.2-.6-.2-.9l.1-.3c-.5.3-1 .4-1.5.4-.2 0-.4.2-.6.2-1.6.1-3.2.1-4.8-.3-.4-.3-.7-.6-1.1-.9l-1 .3-.7-.4-1.5.1-.7.4h-1.6c-.6-.4-1.3-.6-2-.7l-1.3.3c-.3.5-.9.5-1.2.7l-1.6-.5-.6.4c-.6.2-1.2.1-1.8-.1 0-.4-.2-.8-.5-1-.4.1-.1.5-.5.7-.4-.2-.8-.3-1.2-.4-.5 0-.8-.4-1.2-.6l-2 1h-3.3c-.6 0-1 0-1.5-.1h-1.7c-.5.1-1-.4-1.5-.1-.6-.1-1.1-.1-1.7-.1-.5 0-1 0-1.5-.1-.2-.2-.4-.3-.5-.5s-.3-.4-.4-.5l-.2.2c0 .2.1.4.1.7-1 .2-1.9-.2-2.7.2-.6-.2-1.3-.3-1.9-.4-.5 0-1-.1-1.5-.2l-.3.3-.9.1.1.1 1.3.1c.2.1.5.3.5.6-.1 0-.1.1-.2.1h-1.1c-.5-.2-1-.5-1.4-1l-.5.2-1.5-.3c-.3-.2-.2-.5-.5-.5l-.8.4-.5-.6-2.4-.3-.3.3-1.1.3-1.4-.8c-.5-.1-1-.1-1.5-.2l-1.5-.3-.2-.6c-.6 0-1.2 0-1.8-.3l-.5.2-.5-.7-.8.7c0 .2.1.3.1.4-.3.5-.9.2-1.2.4-.1.2-.3.3-.4.5-.1.1-.4.1-.3.4.4.2.9-.1 1.3.3v.4l-.7.4-.6-.4-.7.2-.7-.2-1.2.7c-.3-.1-.6-.1-.9-.1-.3 0-.5 0-.8.1l-.5-.4c-.7.1-1.5 0-2.2-.2l-2 .9-.5-.1-1 .4c-.3-.2-.6-.3-.6-.7.1-.1.2-.1.3-.2l.4-.1c-.2-.1-.4-.2-.7-.3-.9-.2-1.8-.2-2.7 0-.4.1-.9.1-1.3-.1-.6.3-1.2.3-1.9.2l.3-.4c-.4-.3-.6.2-.9.3l-.3-.3c-.1.1-.3.1-.4.2-.2.1-.2.4-.4.4l-.5-.2-1 .5-.5-.1c-.3-.2-.3-.5-.5-.4l-2.4.2-.9.5-.6-.4-.9-.2-.2.3-1.8.2c-.6.1-.9.8-1.6.8l-.1-.3c.1-.1.2-.1.3-.2.1-.1.2-.2.2-.3-.4-.2-.8-.2-1.1 0l-.9.7c0 .1 0 .2.1.3l-.7.6c-.9-.1-1.8-.4-2.7-.8-1.1.1-2.1 0-3.2-.1-.3.1-.6.5-1 .4l-.5-.4h-.2l-.5.2-.9-.3-.3.5-.9.3c-.3-.1-.6-.1-.9-.1h-1.7s-.1-.1-.2-.1.2-.4-.1-.6l-.6.6h-.2l-.4-.6-.9-.1c-.4.3-.8.6-1.3.8-.4-.1-.8-.2-1.3-.2-.5.1-.7-.4-1.1-.4l-.3.3h-.9c-.4.1-.8.1-1.2 0-.6-.2-1.2-.3-1.7-.4-.4-.2-.9-.1-1.3.1h-.3c-.9-.1-1.7 0-2.6-.1-.3-.1-.7-.1-1.1 0-.7.1-1.3.2-2 .1h-.6c-.1 0-.1 0-.2-.1l-.3-.5-.7-.1-.2.3-.5.1v1c-.6.4-1.3.5-2 .3v-.1c0-.2.4-.3.3-.6l-.3-.1-.4.4c-.4.1-.8.1-1.1-.1-.4.3-.9.1-1.4.2l-1 .4-1-.1-.5.3c-.5-.6-1.2-.5-1.8-.6l-.9.3v.5l-.3.2.1.3c-.3.2-.8.3-1.2.3-.4-.2-.5-.5-.3-.8.2-.4.7.1.8-.5l-.3-.2-.7.2-.4-.2-.4.2c-.9-.3-1.1-.3-1.5.1.3.3.8-.1 1.2.5-.6-.1-1.1-.1-1.7 0-.5 0-1.1.2-1.7.1l-1.7-.1c-.8.2-1.6.2-2.3.1-.4-.2-.9-.3-1.1-.8 0-.2.3-.4-.1-.6-.2.1-.5-.2-.9 0l.6.5-.3.6c0 .1-.1.1-.2.2-.4 0-.8-.1-1.2-.1-.2 0-.4.1-.4.3 0 .1.1.2.1.4l-.3.4c.2.1.4.2.3.4-.1.3-.4.1-.7 0-.2 0-.5 0-.7.1-.3.1-.5 0-.7-.2 0-.1 0-.2-.1-.3.3-.3.7-.2 1-.2 0 0 .1-.1.2-.1-.1-.2-.5 0-.5-.4s.4-.2.6-.4c-.3-.3-.4-.3-.6-.3-.2 0-.4.2-.6.1-.4-.2-.8 0-1.3 0-.1 0-.2 0-.3.1l-1-.5-.5.2-.9-.3-1 .1c-.4-.3-.8-.6-1.2-.4-.6.3-1.3.2-1.9-.1l-.6.2c-.6-.2-1.3-.2-1.8.1l-1.9-.9-1.8.2-.3-.3-1.5.6c-.3-.4-.6.2-1.1 0-.1-.1-.3-.1-.4-.2-.1-.1-.2-.1-.3-.2 0-.1-.1-.1-.1-.2.1-.2.4-.2.3-.5l-.2-.2c-.8.2-.8.2-1 .5l.4.4c-.2.2-.3.5-.5.7h-1c-.3-.2-.1-.7-.5-.8l-1.1.1-.6-.4-.2.3-.4-.2.1-.5-2 .1-.4.6-.4-.3c0-.1.1-.2.1-.3s0-.1-.1-.2c-.2-.1-.3-.1-.5-.2s-.4-.1-.7-.1l-2 2c0 .3-.1.5-.1.7l-.6.3h-1c0-.1.1-.3.1-.4l-.8-.1.4-.5c0-.2-.1-.4-.2-.6.1-.2.2-.3.3-.6h-.5c-.2.3-.3.6-.7.6l-.5-.3c-.6.3-1.1.1-1.7-.1l-.9.8-1.2.2c-.4-.1-.4-.4-.6-.7s.2-.4.1-.6-.3-.4-.6-.2l.2.4c-.5.1-.5.6-.8 1l-.4.2.5.5c.1.2.2.3-.2.4l-2.4-1.6-.6.5.3.3c0 .3-.2.6-.5.7-.3.1-.5.2-.8.3-.1 0-.1.2-.2.3l1.1.1c.1.2.2.3.3.6-.6.5-1.4.7-2.2.6-.2-.2-.3-.3-.4-.5l-.9.4-.6-.5c-.2.1-.4 0-.5.2.2.2.5 0 .6.4 0 .5-.6.3-.8.5l-.3.6h-.4l-.6-.5.5-.6-.3-.3c-.4.4-.7.7-1.2.6-.3-.3-.8-.2-1.1-.6-.1-.1-.1-.2-.1-.3l.3-.4h2.1l1.1-.9.8.3.2-.3c-.3-.2-.7-.1-.8-.5l.4-.6-.7-.5-.6.2-.5-.2-.5.6c.2.2.5.3.4.6-.4.6-1.1.5-1.6.8l-.5-.3-.9.3c-.1.3-.2.5-.2.8l-.4.4c-.1.5.1 1-.2 1.4 0 .1-.2.1-.3.2l-.6-.5-1 .5c-.6 0-1.2 0-1.8-.1l.3-.4c.5-.2.9.1 1.3-.1v-.3l.8-.4c-.2-.1-.3-.3-.5-.4-.2-.2-.3-.4-.4-.5l-.4-.1v-.5l-.5-.1-.2.6c-.2.2-.5.3-.4.7.1.2.5.2.4.6l-.4.3c-.4-.3-1-.3-1.4-.1v.6c-.3 0-.6.2-.8-.3l.3-.4c-.1-.2-.4-.3-.3-.6l.3-.1.5.4.7-.3v-.1L733 22l-.9.2-.5-.4c.1-.2.1-.3.2-.5l-1.3-.6c0-.2.1-.3.1-.5-.4-.1-.8-.1-1.2-.1l-.2.2c-.4.1-.9.1-1.3 0h-.8c-.2-.1-.5-.3-.9-.3-.4.1-.5-.3-.7-.5-.2.1-.2.4-.5.3v-.4c-.3 0-.7 0-1-.2 0 0-.1 0-.2.1l.3.4-.1.3.3.5-1 .1c-.3-.1-.5-.3-.5-.6 0-.2-.1-.3-.2-.3 0 .2-.1.4-.2.5-.1.1-.2.2-.4.2l-.5-.4c-.3-.1-.6-.2-.8-.3-.4-.2-.8-.1-1 .3l-.3-.3-.6.4-.8-.7c-.2.1-.5-.1-.8.1 0 .2.1.4.1.5-.3.3-.5.1-.8-.1l-.6-.8 1.1-.1-.4-.4c-.4 0-.7-.1-1-.4h-.2v.8l-.7.7-.4-.2c-.2-.4-.3-.7-.5-1-.4-.1-.7-.4-1-.2 0 .1 0 .2.1.3-.4.3-.8-.1-1.1-.1l-.5.2H710l.3-.4v-.2c.4-.2.9-.3 1.3-.2l-.3-.4h-1.5l-.6.4c.1.2.2.4.3.5.1.2-.1.5-.4.6l-.6-.5-.7-.4c.3-.2.8 0 1-.5-1 0-2-.2-3-.4l-.4.1-.8-.4v-.5c0-.2-.1-.3 0-.4l.4.1c.3-.3.1-.5-.1-.6h-.5c-.5.4-.5.4-.8.5-.2-.2-.4-.4-.6-.5-.2 0-.4-.1-.6.2.3.4.8.4 1.2.6 0 .1-.1.2-.1.3s-.1.1-.2.2-.3.1-.4.1c-1.1-.1-2.1-.3-3.2-.6l-.1-.4c.1-.3.4-.6.1-.9-.4.1-.5.5-.7.8l-.8.1c.3.3.8-.1.8.4-.6.2-1.2.1-1.8-.1l-.3.3.2.5-.3.3-1-.4v-.2l.4-.2-.8-.4c.1-.3.1-.5.1-.7l-.9.3.3.3c.2.2.1.3-.1.3-.2-.1-.5-.1-.7-.4.2-.3.3-.6.6-1-.2.1-.5.2-.7.2h-.7c0-.2-.1-.3-.1-.4h-.4l-.5.6c-.7.1-.6-.6-1-.7l-.2.6c-1.3-.2-2.5-.1-3.8-.4l-.3.3-.4.1c-.2 0-.3.1-.5.1-.2.1-.3.1-.4 0-.1-.1-.1-.4-.1-.5l-.5.2c-.3 0-.5-.3-.7-.1.2.2.1.6-.1.7 0 0-.1 0-.1.1-.5 0-.9-.1-1.3-.4l-.5.4c-.4-.2-.6-.7-1-.6l-.5.3-1.3-.4c-.4.1-.8.3-1.2.2l-.5-.4-.7.8c-1.1-.2-2.2-.6-3.3-.1l-.6-.7c-.3.4-.4.8-1 .7l-.9-.5-1.3.2-.6-.3c.1-.3.2-.5-.2-.6-.1.1-.2.3-.2.4l-.3.3c-1-.2-2-.3-3-.2l-1.4-.5-.4.4-.7-.2-.5.2.2.3c0 .3.4.4.5.6-.3.1-.6.1-.9-.1-.3-.1-.6-.1-.9-.1l-.5-.4c-.5.3-1-.1-1.5.2l-.9-.3-1.1.4c-.2.4-.4.6-.8.4-.1-.1-.1-.2-.2-.3h-1.4l-.9.4c-.2-.1-.4-.2-.6-.2-1 0-2 .2-3.1.1-.4.2-.9.2-1.4 0-.8.2-1.5 0-2.1.2l-.6-.3c-.4.2-.7.3-1.1.3-.6 0-1.1.2-1.7.3.1.2.2.3.2.3.7.2 1.5.1 2.2-.1l.9.4c.5-.3 1.1-.3 1.7-.1.4.2.9.2 1.4 0l.8.3.5-.2.8.2.6-.4c.1.1.3.1.5.2.6 0 1.3 0 1.9.2.6.1 1.3.1 1.9.1l.9.3c-.1.2-.1.4-.2.5.3.3.3.3.3.8-.1.1-.2.2-.4.2-.1 0-.2 0-.2.1-.3-.1-.6-.3-.9-.2-.3.1-.4-.1-.5-.3.3-.2.8-.2.9-.7-.1-.2-.3-.4-.6-.3l-.5.3-.8-.2c-.2.3-.4.5-.5.8l.3.4-.9.3c-.4-.2-.8-.3-1.3-.5l-.4.5c-.5.2-1-.2-1.4-.1-.4.1-.9.1-1.4 0 0-.1.1-.3.1-.4 0-.1-.1-.1-.1-.2-.4.1-.7.3-.9.6 0 .1-.1.1-.2.1l-.5-.1-.6.4-.7-.5-.6.4-.3-.4-.6.4-1-.5-.6.4c-.1-.2-.2-.4-.2-.6h-.4c-.1.2-.2.4-.2.6l-.8.1-.7-.5-.4.1v.4l-.3.2c-.5 0-.7-.4-1-.5l-.5.4-.7-.2c-.4.4-1 0-1.6.3-.5.2-1 .3-1.6.3-.3.2-.6.4-.9.7-.3.2-.5.5-.8.7-.4 0-.8.2-1.2-.2 0-.3 0-.7-.1-1-.4-.2-.1-.8-.5-1.1l-.5.6-.4-.4v.5l.4.3-.5.5c-.5.1-.8.1-1.2.2 0 0-.1-.1-.2-.1l.7-.7v-.5c-.3 0-.5.1-.7.3-.3.4-.9.6-1.4.5l-.4.3-.3-.2-.4.4h-.8l-.3-.3c-1 .5-1.9-.1-2.9-.2l.3-.4-.6-.1c-.3.1-.2.3-.2.6H621l-.3-.3c-.6.7-1.4.4-2.2.6-1.2-.1-2.4-.4-3.6-.4h-.2c-.8-.3-1.6-.3-2.4-.6-.2-.1-.5-.1-.7-.1-.8.1-1.6.2-2.5.3l-1.8-.8-.7.1c-.5-.2-1-.6-1.3-.4-.7.3-.5.9-.6 1.3l-1.1-.1c-.1 0-.2 0-.2-.1-.5-.2-1-.3-1.5-.2h-1.1l-1-.4-.4-.4h-1c-.1-.2-.2-.4-.2-.6l-2.1-.3c-.4.1-.8.1-1.2 0l-1.1.4-.4-.3v-.4l-1-.2-2.3.2c-.3 0-.6 0-.9.3 0 .1 0 .2.1.4l-.5.2c-.3-.1-.5-.3-.7-.4-.2-.1-.4-.1-.7-.1-.1-.2-.1-.4-.2-.6l-.7.1c-.1.2-.2.4-.2.5l-1.8.6h-.6c-.2 0-.3-.1-.3-.3l.4-.6c-.1-.1-.1-.2-.2-.2-.6-.2-1.3-.3-2-.4-.9.1-1.9 0-2.7-.3-.7.2-1.4-.1-2.1.4l.3.5-.3.4.5.5c-.1.2-.4.2-.5.1-.4-.2-.9-.3-1.3-.4-.5-.1-.9.3-1.3 0 .2-.4-.1-.8-.1-1.1l-.7-.4c-.6-.1-1.2-.1-1.7.2-.2 0-.3.2-.2.3.3 0 .7 0 1 .1.1 0 .1.2.2.3l-.7.4h-2.3s-.1-.1-.2-.1v-.5l-.6-.2-1.1.1c-.4-.4-.8-.8-1.3-.7l-.7.9h-1c-.1 0-.1-.1-.2-.2.3-.4.6-.1.9-.2.3-.1.3-.2.2-.4-.7-.2-1.4-.3-2.2-.3l-.8.5-2.1-.1c-.3-.4-.8-.7-1.3-.8-.1.2-.2.4-.2.6l-1.1-.1-.3-.5c-.3.2-.6.5-.8.8l.8.1.4.5-.6-.1c-.4.2-.8.3-1.3.4h-.5l-.7-.7-2 .3-.6-.4v-.3c-.2-.5-.6-.6-1-.8l-.6.4-.8-.2-.8.2c-.2-.1-.4-.1-.6-.2-.3-.1-.6-.1-1-.1-.5.1-1.1.3-1.7.4 0 .2-.1.4-.1.7l-.5.2-1-.4c-.4-.1-.8-.1-1.2.1.2.2.3.4.5.5l.4.3c1.1.1 2 .2 3 .3.1 0 .2.1.3.2l-.2.3c-.7-.2-1.5-.2-2.2 0l-.4-.2-.8.5c-.5-.1-1.1-.2-1.7-.4-.2 0-.3-.1-.4-.2 0 0-.1-.1-.1-.2l.6-.4-.6-.2c-.1-.2-.2-.3-.3-.5l-.8-.2-.4.3-.4-.6c-.1-.2-.4 0-.5-.3-.1-.3.1-.3.1-.5-.3-.2-.5-.2-.7 0-.2.2.1.5-.1.6l-1.2.3s-.1.1-.1.2l.5.4-.2.4c-1.7.2-3.5.2-5.2 0-.2-.1-.4-.2-.3-.5.1-.3.6-.2.6-.7-.2-.2-.5-.2-.7-.1l-.5.7-2.2-.6-.5-.4c-.4.1-.8-.1-1.2.1.2.6.8.2 1 .7 0 .4.3.7.1 1.2 0 .1.2.3.2.4l.8-.4.3.1 1.6-.3c1.2.5 2.4.1 3.5.6.5-.2 1.1-.2 1.6 0-.4.4-.9.6-1.5.8l-1.8-.3-.7.3h-1.4c-.2 0-.5-.1-.7-.1-.9.2-1.8.2-2.8.2-1 0-2.1 0-3.1-.2-.6-.1-1.1-.4-1.5-.9.8-.1 1.6-.1 2.4 0-.2-.2-.5-.4-.8-.5l-.5.1c-.7-.4-1.4-.6-2.2-.7l-.6-.4c-.1-.3-.3-.6-.6-.7l-.9-.1c0 .1-.1.3-.2.5l-1.2.2-.3.3h-.5c-.2 0-.4.1-.5.2l-.6-.3h-2.2l-.3-.3-1.1-.1-.6.4-2 .3-.5-.3c-.2-.3.1-.5-.2-.7-.7 0-1.5-.2-2.1-.5-.1 0-.2 0-.2.1s0 .3-.1.4l-.6-.3c-1 .2-2.1.1-3.1-.1l-1.9.3-.6-.2c-.1-.3-.4-.5-.7-.6l-1.2.3-.8-.2c-.2-.4.1-.6.3-.8-.2-.1-.2-.5-.5-.5l-.6.6v.6c0 .2-.2.3-.3.4s.1.1.1.1c.7 0 1.4.3 2.1.3.2 0 .4.1.6.2.5.3 1.1.5 1.7.5.2 0 .4.1.5.2-.6 0-1.1.1-1.6.2-.5.2-1.1-.1-1.6.2 0 .2.1.4-.2.6l-2.5-.3c-.1-.1-.2-.1-.3-.2-.4-.1-.9-.2-1.2-.3l-1-1-.7.4-1-.6-.6.1-.3-.3V15c-.7-.1-1.3-.7-2.1-.5 0 .5.6.6.5 1-.3.1-.5.3-.7.4l-.6.6-.9-.2-.3.3c-.4.1-.7.2-1.1.3-.4.1-.8 0-1.1-.1.1-.3.2-.6.2-.9l-.5-.4c-.1-.5 0-1 .1-1.4h-.5c0 .3.1.5.1.7-.3.3-.7.5-1.1.4l-.3-.4h-.3c-.1.4-.5.2-.7.5 0 .1-.1.3-.2.6-.6.3-1.2.6-1.8.8-.4.1-.8.3-1.2.6-.1 0-.1.2-.2.3h1.2c.2 0 .4.2.4.3l-1 1c-.2-.1-.5-.1-.7-.2h-.8l-.6-.4-.3.3-.4.3h-.6c-.2 0-.4-.1-.6-.2-.4-.1-.8-.2-1.1-.3s-1-.2-1.6-.4c-.1-.3-.2-.6-.3-1-.3-.2-.7.1-1-.3 0-.2.2-.4.4-.5l2.8-.1c.2-.2.4-.3.2-.6l-.4.3-3.1-.1-.6-.4c-.1.3-.4.4-.3.7.1.3.6.3.6.7l-.2.3.4.5-.8.3-.8-.2c0-.2-.1-.4-.1-.6 0-.2-.3-.4-.1-.7l.7-.5-.5-.1-.9.6c0 .3.3.7-.2 1-.2 0-.4 0-.6.1-.2.1-.4.1-.7.2l-.6-.3-1-.1c0-.6.4-.8.7-1-.1-.2-.3-.3-.4-.5.3-.5.9-.4 1.2-.7.1-.1.2-.2.2-.4l1.5-.9h1c0-.1.1-.3.2-.5-.4-.2-.9-.2-1.4 0-.4.2-.8.2-1.2.1-.1 0-.2-.1-.2-.1 0-.1-.1-.2-.1-.3l.5-.5-1-.2-1.2 1c-.1 0-.3-.1-.4-.1-.3-.1-.6-.1-.9 0-.7.3-1.5.5-2.3.7 0 0-.1.1-.1.2l.4.5c0 .5-.7.4-.6.8l.1.1c.6.1 1.2-.2 1.8-.2v-.1l-.5-.4c.1-.3.2-.5.3-.8l1.3-.6.8.4c.2.5-.1.7-.4.9h-1.2c.1.3.1.5.2.7l-.6.5v.3c-1 1.1-2.2 1-3.4.4-.4 0-.8.3-1.2.1.2-.3.7 0 .7-.5-.6-.3-1 .2-1.5.2l-1 .8c-.6.2-1.1.3-1.6.4-.8.3-1.7.4-2.5.2l-.8.5-.4-.4-2.4.3-.3-.4h-1l-.3.3h-.6l-.6-.4h-1.2l-.4.4c-.6.1-1.2 0-1.7-.3-1.3-.1-2.6-.1-3.8.1-.6-.3-1.2-.4-1.8-.5-.5-.1-1-.1-1.6-.1-.9 0-1.7-.3-2.6-.3-.8-.2-1.5-.4-2.3-.5-1-.1-2-.3-3-.6-.8-.2-1.6-.3-2.5-.4-.8-.1-1.5-.3-2.3-.4-.2 0-.3 0-.5.1l-1.3-.1-.8-.5-.5.5c-.9.3-1.4-.3-2-.7l-1.6-.2-.4.3c-.8.2-1.7.1-2.5-.3v-.5l-1.7-.5c-.4.3-.7-.1-1.1 0s-.6-.1-.9-.1h-1.1l-.4.2-.5-.3-.6.3-1-.1-.5-.5-1.5.2-.5-.2-.2.3.2.2-.4.8-1.2.4-.4-.7-.8-.1c-.2-.2-.3-.3-.2-.6l.5-.2c0-.1-.1-.2-.1-.4h-1c-.2 0-.4 0-.5.3l.6 1.1c-.4 0-.7.2-.9.1-.3-.1-.7-.1-1 0-.6.2-1.2.1-1.9.3-.1 0-.2 0-.3-.1-.3-.3 0-.9-.5-1.1l-.6.4-.4-.2-.5.3-.3-.7-.9-.6-.4.4.6.8c-.5.3-1.1.1-1.6.4-.2-.1-.5-.2-.7-.2h-.7l-.5.6c-.6-.1-1-.5-1.5-.4l-.4.7c-.5-.2-.9-.4-1.3-.8-.3.1-.5.1-.7.4-.1.3-.4.4-.8.4-.2-.1-.5-.3-.8-.4-.3-.1-.6-.1-.9-.2l-.7-.4h-1l-.7-.6h-1.2c0 .2.1.3.1.5-1.3.3-2.6-.1-3.8.2l-1.2-.4-.4.4c-.6.2-1.3.1-1.9-.1l-.7.2-2-.3-.2-.5c-.5.1-.2.5-.5.8-.2.3-.6.3-.9.1v-.5l-1.9.5-2-.3-.6-.4h-1l-.6.4c-.5.1-1 .1-1.4-.1-.1-.1-.3-.1-.5-.1-.5.1-1.1-.1-1.5-.3-.6-.4-1.4-.5-2.2-.4l-.7.5c-.2-.2-.5-.3-.7-.5l-1.2-.1c-.8.4-1.7.5-2.5.3l-.3-.3c-.5.2-1 .2-1.4 0-.5.2-1 .3-1.5.5-.1.2-.1.4-.2.6l-.5-.2-1 .2c-.6-.3-1.1-.5-1.7-.8-.1 0-.1-.2-.2-.2-.1-.2.2-.4 0-.6h-.5l-.6-.3-1.9.6c-.6-.2-1.2.3-1.8-.1-1.5.5-3.2.2-4.5-.8h-.5l-.3-.7c-.2.1-.3.2-.5.2s-.4.1-.5.1l-.5.6h-1.3l-.5.2-.7-.2c-.1.2-.1.4-.2.6-.5.3-1 .5-1.5.5-.3-.1-.7-.2-1-.1l-1-.4c-.6.3-1.4.3-2 0-.1-.5-.3-.9-.7-1.2l-1 .1c-.1.3-.3.6-.4.9l-.7-.1c.1-.3.4-.3.3-.6l-.4-.1c-.8-.1-1.5.6-2.3.5-.6.4-1.2.2-1.8.2l-.3-.4-1.8-.2c-.3.2-.8.3-1.2.2l-.4-.4-1.4.8-1-.1c-1.2-.6-1.6-.7-1.8-.5l.4.7-.3.3-.7-.1-.9.3c-.3-.2-.9-.1-1.1-.6.2-.3.7-.3.7-.8l-.4-.3-1 .5c-.8-.3-1.6-.3-2.4-.2-.1.4-.2.8-.3 1.1 0 .1-.1.1-.2.2l-.9-.2-1.2.1-1.2-.4c-1.1.4-2.4.3-3.4-.3h-.8l-.5-.5v-.4c-.7 0-1.3-.4-2-.2-.4.3-.7.7-.9 1.2l-1.7.4-.5-.4v-.5l-.4-.2c-.3.1-.5.5-.5.8.1.2 0 .4-.2.6-.9.2-1.9 0-2.7-.5l-2.3-1.1h-.3l-.3.2c.1.3.2.5.3.7-.2.2-.3.4-.4.6-.1.2 0 .5-.3.6l-1.9.3c-.6-.5-1.3-.4-1.8-1l-.6.2-2-.3-.3-.4c.1-.3.1-.4.2-.7l-.6-.2-.4-.5c-.5 0-.6.4-.9.6l-.7-.1c-.1-.3-.2-.5-.4-.7l-.4-.1-.3.3-1.7.5-.3-.3-1.6.4c-.6-.3-1.3-.4-2-.3-.1-.1.2-.5-.3-.4l-.2.6c-.5.4-.9 0-1.4 0h-.3c-.2-.1-.4-.3-.5-.4l-.3.3-1.9-.1-.4-.5c-.6.3-1.2.6-1.9.8-.6.1-.9-.4-1.3-.6l-2 .6-1-.5-.4.2-.6-.2-.4.7c-.6.1-1.2 0-1.8-.3-.2-.2-.1-.5-.5-.5-.2.2-.4.5-.7.8-.1.1-.1.1-.3.1l-.9-.5c-1 .2-1.9.3-2.9.2l-.8-.8c-.4.3-.8.6-1 1.1 0 .1-.1.1-.2.1l-.5-.2-.6.4c-.4-.2-.8-.1-1.2.1-.2-.1-.3-.1-.5-.2-.2 0-.3 0-.5-.1-.3.1-.3.5-.7.4l-.7-.9-1.1 1c-.4-.1-.7.1-1.1-.2.1-.1.1-.2.2-.3.3-.1.6-.1.8-.1.1 0 .1-.1.1-.2l-.1-.2c-.3.1-.6.1-.9.2-.2.1-.4.2-.7.3-.7 0-1-.3-1.5-.3-.3.4 0 .8-.2 1.1l-.2.1c-.3-.1-.4-.5-.9-.6l.4.9c-.1.6-.5 1-1 1.3v.2c.2 0 .4 0 .6-.2.3-.1.6-.1.9-.1.3 0 .5 0 .8.1.3 0 .4-.4.8-.2l.4.6c-.1.2-.3.3-.4.5-.6-.1-1.1-.1-1.7 0-.5.2-1.1.2-1.7.2l-.4-.3-1.7-.1-.5.5-1.5-.1-.1.4c-.2 0-.3.1-.5.1-.5-.1-1 0-1.4.1-.6.1-1.2.1-1.7 0-.2-.4.2-.4.3-.6v-.4l.1-.1c.4-.1.8-.1 1.1-.1.7.1 1.4.1 2-.2 0 0 .1-.1.1-.2l-.3-.5c-.5-.2-1-.3-1.5-.3l-.7-.4-.9.2c-.1-.2-.1-.3-.1-.5h-.9c-.1.2-.2.3-.2.4-.1.1.1.4.2.7l-.2.2c-1.1.2-2.3.1-3.4-.2-.4-.1-.6-.5-1.1-.3l-.5.7h-1.2l-.3.4-1.2-.1c-.5-.3-1-.5-1.6-.5-.3 0-.6-.2-.8-.5 0-.1.1-.2.2-.3l.3-.3-.5-.2-.7.5-.3.6c-.5.2-.9 0-1.3.2l.9.4.1.5c-.3.4-.8.7-1.3.8-.6.1-1.1-.1-1.7 0-.5.1-1 .2-1.5.1-.5 0-1-.2-1.4-.2-.5.1-.9.1-1.4.1-.9-.1-1.8-.2-2.9-.2-1.1-.4-2.3-.5-3.4-.4-.4.1-.7.1-1.1 0-.4-.2-.8.1-1.2-.2-.3-.1-.6-.1-.8 0-.6.2-1.3.2-2 .1-.1 0-.2 0-.3.1-.4-.4-1-.5-1.5-.4l-.6.5c-.3-.1-.5-.2-.8-.3h-.8l-.6.7c-.3.1-.6.2-.9.2-1.3-.1-2.6-.1-3.9.1l-.1.1c.2.3.7 0 .8.4-.4.2-.8.2-1.2.1-.2 0-.5 0-.6-.3.1-.3.6-.3.6-.7l-.6.2-1.6-.2-.1-.1c.2-.3.6-.2.7-.5l-.1-.3c.1-.1.1-.2.2-.4l-.6-.5c-.3.1-.5.2-.8.3-.2 0-.5.1-.7.1l-.7 1.2-.8.1-.4.4-.5-.3-2.6.7-.9-.5-.6.2-.8-.6c-.2.3-.4.5-.8.6-.6-.1-1-.1-1.5-.1-.9 0-1.8-.1-2.6-.3-.1 0-.2-.1-.2-.2l-.1-.3.4-.4c.1-.5.2-1 .4-1.5h.6l-.3-.6c-.6.1-.5.7-.8 1l-.7.3c0 .3-.1.6-.1.8l-.7.9-2.9-.8-.9-.5-.4.3-.5-.3c-.2.1-.5.2-.6.4-.2.4-.6.5-.9.7-.3-.1-.6-.2-.8-.2h-.8c-.4.1-.7-.1-.9-.4.3-.3.8 0 1.1-.5 0-.1-.1-.2-.2-.3h-1c-1.1-.5-1.1-.5-1.6-.4.3.2.6.3 1 .5 0 0 .1.1.1.2l-.7.4-2.1-.4s0 .1-.1.1c.3.3.6.5 1 .5.3 0 .7 0 1 .2.6.1 1.2.2 1.9.4.6.1 1.1.2 1.6.3.6.1 1.2.2 1.7.4.2.1.3.1.5.1.9.1 1.8.4 2.6.8 0 0 0 .1.1.2h-.6c-.3.2-.7.1-.9.5.2.3.6.1.7.5-.3.4-.7.5-1.1.4-.5-.1-.9-.2-1.4-.2-.2-.2-.3-.3-.5-.4-.2-.1-.5 0-.6-.3.2-.6.8-.4 1.2-.6 0-.1-.1-.2-.1-.2-.4-.3-.8-.1-1.2-.1l-.9.9c-.3.3-.9.1-1.3.3h-.1c-.3 0-.5-.1-.7-.1-.2.1-.5 0-.7-.1-.1-.1-.3-.1-.4-.2h-.6l-.6-.5-.6.2c-.6-.4-1.3-.6-2-.4l-1.2-.4-.7.4c-.2-.3-.4-.5-.6-.6l-1.4-.3-.6.1-.6-.5c-.3.2-.7.2-1 .1l-.3.3c-.7-.3-1.4-.5-2.1-.6-.2 0-.3-.1-.4-.2-.3-.2-.6-.3-.8-.5l-.7.1-.6-.2c-.6.3-1.3.3-2 .1 0-.2 0-.4.1-.5-.1-.3-.3-.6-.7-.6-.1 0-.2 0-.3.1 0 .3.3.5 0 .9-.2 0-.6 0-.9.1-.3.1-.6.1-.9.2l-.6-.3c-.1-.1-.3-.2-.4-.3l-.6.8c-.2-.1-.3-.2-.3-.3.2-.3.4-.5.5-.7.1-.2.6-.2.5-.6l-.2-.2c-1.1-.1-1.1-.1-1.4-.4.1-.1.3-.1.5-.1h1.8c1.2 0 2.5.2 3.6.5.3.1.5.1.8.1.4 0 .8.2 1.2.4l.2.3c1 .3 2 .4 3.1.3.1-.3.2-.5.2-.6 1.3-.1 2.6.4 3.9.2.1 0 .2 0 .4.1.3.1.7.2 1.1.2h1.5l.9.4c.3-.3.3-.3.3-.5l-.9-.1-.6-.7-.6.2c-.4-.1-.6-.4-.7-.8l.4-.4-2.2-.5-.4.5c-.5 0-1 0-1.4-.2-.4-.1-.7-.4-1.1-.2l1.3.7c-.7.8-1.6.3-2.3.5h-.1c-.7-.3-1.5-.4-2.3-.4-.2 0-.4-.1-.6-.1-.7-.1-1.3-.2-2-.3-.5-.1-1-.1-1.5-.2l-.6.2c-.3-.2-.6-.3-1-.3h-3.2l-1 .1c-.3-.3-.7.2-1 0l-.2-.3c.3-.4.9-.6 1.4-.5l.4.4c.2-.3.4-.5.4-.8l-.7-.3c-.4.3-.8.5-1.3.5-.3.1-.6.2-.8.3l-.3.8-1.8.3c-.8-.5-1.7-.2-2.5-.2l-.8.3c-.3-.3-.8-.2-1.1-.6.1-.1.1-.2.1-.2.7-.4 1.2 0 1.9-.4-1-.2-1.9.1-2.7-.3l-.7.2c-.9-.3-1.9-.4-2.8-.3l-.6.3-.3-.3c-.8-.1-1.6-.2-2.4-.4-.3-.1-.7-.2-1-.3-.7.2-1.5-.2-2.2.2-.7-.2-1.5-.3-2.2-.2l-.3-.3-.3-.3c-.4.2-.3.7-.6.9l-1.5.3h-.3l-.5-.4c-.3-.1-.6 0-.8.2.1.2.1.3.2.5-.5.3-1.1.4-1.6.4s-1 .1-1.5.3c-.9-.1-1.8-.2-2.7-.2l-.5-.5h-.1l-1 .8-.4.7c-.5 0-1 .2-1.5-.1.1-.2.1-.4.2-.7l-.3-.1c-.5.5-1.2.9-1.9 1.2h-2.4l-.7-.5c-.4.2-.7.4-1.2.2l-.2-.3.4-.6c0-.2-.1-.3-.1-.5.2 0 .5-.1.6 0 .5.2 1 .3 1.6.1.2-.1.4-.3.5-.4.4-.5.7-1.1 1-1.8l-.9.1-1 .7-.6-.2H95c-.5.2-1 .4-1.5.8-.6.2-1.2.3-1.9.4H85c-.1 0-.1-.1-.2-.1 0-.3.2-.3.4-.4.2-.1.3-.3.2-.5l-.5-.6c-.3.3-.5.6-1 .5l-.2-.4-1 .6c-.5.1-1 .1-1.5 0-.1-.2-.2-.4-.2-.6l-.5-.3c0-.2 0-.3.1-.5L80 8l-.7.6-.5-.1-.4-.1c-.4.4-.7.7-1.1 1l-1.6.5c-.3 0-.7.1-1 .1l-.9.3c-.3.1-.7.1-1 .2-.3.2-.7.3-1 .3l-.6.6c-.6 0-1.1 0-1.7.1 0 .2 0 .4.1.7h.8c0 .2-.1.3-.4.4l-.6-.2-.3.2H69c-.5-.2-.5-.2-.6.1l.7.3c-.8.1-1.6-.1-2.1.2-.4-.1-.9-.1-1.3-.1-.5.2-.9-.2-1.3 0l-.7.6-1.1-.3-1.3.1-.7.3-1-.2c-.2.2-.4.3-.5.4-.6-.2-1.3-.2-1.9-.1 0 .2-.1.3-.1.4 0 .1-.1.3-.1.5l-1 .1-.4.6-1 .3-.5-.6c.1-.2.1-.4.3-.8l-.6.3c-.1.1-.3.2-.4.3-.5-.2-1.1-.2-1.6-.1-.4.6-.8 1.1-1.4 1.5l-1.7.4-1.5 1.4-.3.6-.6.2c-.8-.1-1.5-.2-2.2-.3-1.3-.3-2.7-.4-4-.8-.5-.1-1.1-.2-1.7-.2-.8-.1-1.6-.3-2.5-.4-.4-.1-.9-.1-1.3-.2-.8-.2-1.6-.3-2.4-.3-2-.4-4.1-.6-6.1-.6-.4 0-.8.1-1.2.1-1.3-.2-2.7-.2-4 .2-.8 0-1.3 0-1.8-.1s-1 0-1.5.2c-.3-.2-.7-.2-1.1-.1l-.8.6c-.5-.4-1.2-.6-1.8-.5H13l-.4-.4c-.1-.7.4-1.2.3-1.8l-.5-.3-.5-.3c-.2.1-.4.2-.5.4l-.4.4c0 .4 0 .7-.1 1.1v1l-.8.9-.5-.2-.6 1.2-.1-.1v-.2l-.2-.1-.2-.3c-.1-.1-.2-.3-.4-.2l-.1.4c-.8-.1-1.6-.1-2.4-.1h-.4c-1.4-.2-2.8-.1-4.2.1H0v67.5l.6-.4c.3 0 .6-.1.8-.2.6-.3 1.2-.5 1.8-.8l.9-.6c.3-.2.6-.3 1-.4v.5c-.1.9.4 1.8.3 2.7 0 .2.1.5.2.7 0 .1.1.1.1.2-.3.5 0 1.1-.2 1.7l-.3.6-.5.1c0 .4.2.9 0 1.3l-.7-.6-.6.3c.3.7.5 1.3.7 2 .2.8.5 1.5.9 2.3.1.4.4.7.7.9l.6-.1.7.6.3-.1.4-.1c.4.5.7 1 .9 1.6l-.5.1c-.4-.3-.5-.7-.9-.9l.1.6-.3.3.8.3.5-.1.7.6.8-.7c-.1-.5-.6-.5-.8-.8-.3-.7-.5-1.4-.5-2.1l.3-.2.8.9c.1.2.1.4.2.6l.6.4c0 .3-.3.6 0 1l1-.2.5.4.5.1.9.9-.1.4-.6.2c.3.6.9.6 1.3.8l.4-.7.9.1c.1.2.2.4.2.6l2.8.5.3.3 3.4.4.3.1h2.1c.3.1.6.1.8 0 .5-.1.9-.2 1.4-.2 1.1.5 2.2.8 3.3 1 .2-.1.5-.1.7-.2.6-.3 1.4-.4 2.1-.4.9 0 1.8.1 2.8.2l.8.3c.1 0 .2-.1.3-.1.2 0 .3 0 .5.1.6.2 1.3.2 1.9.1h.8c.3 0 .7 0 1-.1.5 0 1 0 1.5.1l.7.1.7-.2c.9.4 1.8.6 2.8.7v.5c.3.2.6-.1.9-.1.1.1.2.2.3.2h2.1c.5-.4 1.2-.7 1.9-.7.6 0 1.2 0 1.8-.1.6-.2 1.2-.1 1.8.1.7.3 1.6.4 2.3.1.3 0 .5-.1.8-.1l1-.1.9-.7 2.1-.3.7-.4c.4.1.9.1 1.3 0 .5-.2 1 0 1.4-.3.2-.1.4 0 .7 0 0-.1.1-.3.2-.5s.3-.1.5-.2c.3-.2.6-.4.9-.5.3-.1.6-.2.9-.2.5-.2 1-.4 1.4-.8.6-.3 1.1-.6 1.7-.8.1-.1.3-.1.5-.2.8-.3 1.6-.7 2.3-1.3 1.1-1 2.5-1.7 3.9-1.9 1.2-.2 2.5-.5 3.7-.9l.4-.1.6.2c.2-.1.4-.2.6-.2 1.1 0 2.1-.5 3.2-.5.4-.2.8-.3 1.3-.2.4 0 .9-.2 1.3-.2 1.2-.1 2.4-.3 3.6-.6.7-.1 1.3-.3 2-.3.8-.2 1.6-.2 2.4-.3.1 0 .2 0 .4-.1.9-.3 1.8-.4 2.7-.4.5 0 1.1-.1 1.6-.3l.4-.4.4.3c.4 0 .7-.2.9-.5l.5.3.4-.3.8.2 1-.4v-.3c.4 0 .5.4.7.4h.5c1-.3 2.1-.3 3.1-.7h.4c.4 0 .9-.1 1.3-.3h1c.5-.1.9-.2 1.4-.2.5 0 .9-.1 1.4-.3.5-.1.9-.2 1.4-.2 1.2 0 2.3-.4 3.4-.6.2-.1.4-.1.6-.3.5.1 1 0 1.4-.1.4-.2.8-.3 1.2-.3 1 0 1.8-.6 2.8-.5 1.2-.3 2.4-.7 3.7-1.1 1.3-.5 2.6-.8 3.9-1.1.1 0 .2 0 .3-.1.5-.3 1.1-.4 1.7-.4.3 0 .6 0 .9-.1l3.3-.6h4.3c.5 0 1 0 1.4.1l2.4.3c.8 0 1.6-.1 2.4-.2.2-.1.3-.1.5-.3V83c.4-.2.8-.1 1-.4 0-.2-.1-.3-.1-.4.3-.3.6-.1.9-.1.7-.3 1.5-.5 2.3-.6.1 0 .1-.1.1-.1 0-.1-.3-.2-.2-.5l.9.1.7-.4c.5 0 1.1 0 1.6-.1.6-.1 1.1.1 1.7 0 .5-.1 1-.2 1.5-.2.9-.1 1.7-.1 2.6-.1.8-.3 1.7 0 2.5-.3h.2c.5.1.9.1 1.4.1.1 0 .2.1.4.1v.5c-.3.2-.6.3-.8.5-.1 0-.1.2-.1.3 1.9-.3 2.6-.5 5.9-2.1.3 0 .7 0 1-.1 1.2-.2 2.4-.4 3.7-.4h.4c1.5-.2 2.9-.2 4.4-.5.7-.1 1.4-.2 2.1-.4 1.5-.3 2.9-.6 4.3-.8 1.5-.2 3.2-.4 4.7-.7l4.2-.9c1.6-.3 3.1-.8 4.6-1.1.6 0 1.2-.3 1.7-.7h-.9c-1.8.1-3.5.5-5.2.5h-.1c-.4.2-.8.3-1.3.2-.5-.1-.9.2-1.4.2-1 0-2 0-2.9.2-.5.1-1 .1-1.6.2-.5 0-1 .2-1.5.2-1.1.1-2.1.1-3.2.1l-.4.3c-.8-.2-1.7-.2-2.5 0-.4.1-.9.1-1.3 0 .4-.6.4-.6.8-.7l1.7-.8c.6-.3 1.2-.6 1.9-.7.5-.1.9-.3 1.3-.6.9-.5 1.9-.9 2.9-1.2.5-.1 1-.2 1.4-.3l.5-.3c.6.3 1.2.5 1.8.7 1.3.4 2.7.7 4.1.8.9.2 1.8.3 2.7.2 1.2 0 2.3-.3 3.5-.2.3 0 .6 0 .8-.1l1.3-.2.5.2 1.1-.2.8-.1 1.2.2.5-.3c.2 0 .5 0 .7.1.7.2 1.5.3 2.3.1.8-.1 1.5-.1 2.3-.2h1c.7-.1 1.5-.2 2.3-.2 1.2.1 2.5 0 3.7-.2.5-.1 1.1-.1 1.6-.2.6-.1 1.1-.1 1.7-.1h.4c.7-.2 1.4-.2 2.1-.2.8.1 1.6 0 2.3-.3 1.3.5 2.7.1 4.1.3l2 .9h.4c.5.2 1 .4 1.5.5.5.1.9.2 1.3.5.4.2.8.2 1.1.4l1 .6c.1.1.1.1.2.1l2.4.4c.6.2 1 .3 1.5.4s.9.2 1.4.3c1 .4 2.1.8 3.1 1.1l.4-.1.5.4h.8c.9.5 1.8.9 2.8 1.1.7.1 1.4.4 2.1.7.1.1.2.1.3.1.4.1.8.2 1.3.4.4.2.8.3 1.3.3s.8.4 1.2.5c.9.4 1.9.5 2.9.5.6.3 1.2.4 1.9.5.8 0 1.5.2 2.2.3.9.2 1.9.3 2.8.4.2 0 .4 0 .6.1.6.2 1.3.2 1.9 0l.8.5h1.1c.2.1.4.2.6.2 1.1 0 2.1.1 3.2.4 1.4.3 2.9.4 4.4.5.9.1 1.8 0 2.4 0 .4.1.8.2 1.1.3.3 0 .7.1 1 .2 1.1.3 2.2.5 3.4.5l.4.3.3.2c.5 0 1 .1 1.5.1.5.1 1 .3 1.5.5.6.3 1.2.4 1.8.4.6.3 1.3.6 2 .7 1.1.3 2.2.5 3.4.7.9.3 1.9.4 2.8.3.1 0 .1 0 .2.1l1.4.3.5-.2.6.3c.9.2 1.9.3 2.8.3h1.9c.6 0 1.3.1 1.9.1 1.1.1 2.2.1 3.4.1.4.1.8.2 1.2.2.4 0 .7 0 1.1-.1 1.8.4 3.5.2 5.1.5l.2-.1c.4.1.8.3 1.2.3 1.1.1 2.1.3 3.2.5 1.1.3 2.2.4 3.3.3.2 0 .4 0 .6.1.6.1 1.2.2 1.8.2h.6c.5.2 1.1.2 1.7.2 1.1.2 2.3.3 3.4.4 1.8.3 3.6.6 5.4.8 2 .2 4 .4 6 .5h.7c.9.1 1.8.3 2.7.5.7.1 1.4.3 2.1.4 1.6.3 3.1.7 4.7 1 1.6.3 3.4.5 5.1.7l1.5.3c.9.1 1.7.2 2.6.3.9.2 1.7.2 2.6.2h3c.9 0 1.8-.1 2.7-.4l.6.1c.8-.1 1.5-.3 2.2-.4 1.1-.1 2.2-.2 3.2-.3.9-.1 1.8-.2 2.7-.4s1.8-.2 2.6-.3c1.1-.2 2.3-.4 3.4-.4h.8c1.2-.2 2.4-.4 3.7-.4.1 0 .2 0 .2-.1l.5-.4c1.2-.2 2.4-.3 3.5-.1.9-.2 1.8-.6 2.6-.4l.4.4.4-.3-.2-.5c.4 0 .8-.1 1.2-.2.7-.2 1.3-.2 2 0 .2.1.5.2.8-.1V91h1.9l1.1-.4-.2-.5.4-.1.7.4.6-.9c.6-.1 1.2 0 1.8.3.1 0 .1.1.1.2s-.1.2-.2.3l-1.3.2.1.2c.8.2 1.7.1 2.5-.3l-.2-.7.1-.1c.6-.1 1.3-.1 2-.1.6 0 1.1 0 1.7.1.4-.2.7-.6 1.2-.6.2 0 .3.1.2.3l-.6.3c1.2.2 2.2 0 3.2.1l.5.2 2.8-.3c.1.2.3.2.5.2h1.7c.3 0 .7 0 1 .1.4.1.7-.1 1-.1.5 0 1 0 1.4.1.4.1.7.1 1.1 0l.5.3.5-.2c.3-.2.3-.7.8-.5-.1.2-.1.3-.2.5l.6.4h.2l.6-.2.9.1c-.2-.2-.3-.3-.4-.5l.4-.6c0-.2-.4-.3-.2-.6.6-.1 1.3-.2 2-.2.6-.1 1.1 0 1.7.1.6-.2 1.2-.2 1.8-.1h.3c.2.4.7.2 1.1.5.3.2.7.3 1.1.3 0 .6-.5.5-.7.7l-.1.3-.6-.2-.3.3-.4.7.4-.3c.4-.1.9-.1 1.3.1 0 0 .1-.1.2-.1l-.3-.8c.1-.1.3-.2.4-.3l.5.6-.2.6 1.1.1c0-.2-.1-.3-.1-.5l.2-.2c0-.3-.1-.5-.2-.8l.7-.4c.4.2.8.3 1.3.3.2 0 .5.1.7.2.1 0 .1.2.2.2-.1.3-.6.2-.4.7l.6-.3c.2-.1.4-.3.7-.5.1.1.3.2.4.1.7-.1 1.3-.1 2 0 .1 0 .2.1.3.2l-1 .9c-.6 0-1.1-.4-1.6-.3-.1.4-.1.4.2.8.5-.1.9 0 1.3.2l.1.3 1.4-.5c.3 0 .6 0 .8.1.3.1.7.1 1 0 .9.6 1.8.4 2.8.4.1.1.1.2.2.4l-1.3.3c.8.3 1.4 0 2.2.1l.2.4c.4.2.9.2 1.4 0-.3-.5-.7-.2-1.1-.2l-.3-.3c0-.1.1-.2.1-.3.1-.1.2-.2.3-.2.6-.1 1.3.1 1.7-.2.5.1.9.1 1.3.2s.7 0 1.1 0 .7-.2 1.2-.2c1 .1 2 0 3-.2.4-.1.8-.1 1.2 0 .1 0 .1.1.2.2s0 .4.1.6l-.6.6h-1.1l-1.5.8-.1.1c.2 0 .4.2.5.3-.5.4-1.2.2-1.7.4l-.4.3c-.4-.2-.9-.2-1.2 0-.2.1-.3.2-.5.2-.4.1-.8.3-1.2.4-.4 0-.8.2-1.2.5-.1.1-.3 0-.5.1-.1.1-.1.1-.1.2.1.2.4.3.3.7l-.3.3-1.5.3c-.3-.1-.7-.1-1 0 .4.3 1 .4 1.5.3.3-.1.5-.1.8-.1h.7l2.7-.7c.9.5 2 .5 2.9.1l.6.2c.6-.4 1.3-.7 2.1-.9l.4-.5 1.2.3c.5-.1.8.3 1.2.4.4-.1.8-.2 1.2-.5.5-.3 1-.6 1.5-.7h1.5l.4.4c.2.3-.5.6 0 .8l.9-1.1c.6-.2.6-.2.7-.4h-1.3c.4-.2.7-.4 1-.7.3-.3.7-.6 1.1-.9.1-.1.2 0 .3 0 .1.2.2.3.3.5l1 .2c.2-.2.3-.4.5-.6l.6-.1-.9.9c-.3 0-.5.1-.7.2-.4.3-.8.4-1.3.4-.1 0-.2.1-.3.3.4.2.8.2 1.2 0 .4-.1.8-.3 1.2-.5.4-.2.9-.3 1.4-.4.4-.1.9-.2 1.4-.2v.7l.3-.4.3-.4c.5-.2.9-.4 1.3-.2v.3c.4 0 .7 0 1.1-.3l1.8-.9c.7-.2 1.4-.3 2.1-.5.3-.1.7-.2 1-.4.3-.2.6-.5 1.1-.5.5 0 .7-.3 1.1-.5 0 0 .1 0 .2.1v.2c0 .1 0 .2-.1.3.5-.2.9-.3 1.3-.5l.6.5h.5l.4-.4 1.8-.3c.6-.2.7-.9 1.3-.8l-.3.6c.6 0 1.2-.3 1.8-.3 0 0 .1 0 .1-.1.5-.3 1-.4 1.6-.3.3-.3.5-.7 1-.6l.2.3c-.4.4-.4.4-.4.7.1-.1.2-.1.2-.2l.9-.7c0-.2-.1-.3-.1-.5l1.2-.5c.7-.2 1.5-.3 2.3-.3.7-.2 1.5-.3 2.3-.2-.5.6-1.4.5-1.9 1.1.8.1 1.6 0 2.4-.4.6-.3 1.4-.3 2 0 1.2-.4 2.3-.9 3.4-1.5h.8l.9-.4.4.1c.8-.4 1.7-.6 2.6-.6l-.3.4-.9.1c-.2.2-.3.4 0 .5l1.9-.8.4.1c.3-.2.1-.7.5-.8 0 .2.3.4.5.4l.6-.7h.8v.7l.7-.3c.2-.2 0-.5.2-.6.2-.1.4-.1.5.1-.1.3-.1.5.3.5.3-.2.5-.4.8-.5.5-.2.9-.4 1.4-.7.4-.2.8-.3 1.3-.4.2-.1.4 0 .5.2h.6l1.3-.9c.4-.1.8-.1 1.2 0 .2-.3.6-.5 1-.5l.5.3 2.2-.9.7.2.8-.7c.6-.3 1.3-.6 2-.8.7-.3 1.5-.5 2.3-.6v.2l.8-.4c.2-.3.2-.3.5-.5l.4.7.6-.2 1.3-1.3 1.4-.2c.8.3 1.5-.1 2.1-.2l.4-.4 1.1.2.6-.3.3-.6c.3.1.4.5.4.8 0 .2.1.4.1.5h.3c1.6-.5 3.2-.3 4.8-.5.7.1 1.4.1 2-.1l.4.4.9-.3.5.2.3-.2.4-.2c.6.2 1.3.2 2 .1 0 .1.1.1.1.2l-1 .1c-.6.5-.6.5-.5.7.3 0 .5-.3.8-.4.5 0 1.1-.1 1.6-.4v-.3c.1 0 .2-.1.3-.1.7 0 1.4-.1 2.1-.3.2 0 .4-.2.6-.2.2 0 .4 0 .5.2.4 0 .8.1 1.2.1.6.1 1.3.1 1.9 0h.5c.7.2 1.5.2 2.2 0 .7.1 1 .1 1.4.1l2.9.1c1-.1 2 0 2.9.2h.1l.5-.2.2.3v.1c-.7.6-.7.6-1.4.4v-.3c-1.4.4-1.4.4-1.9 1 .3-.1.5-.2.8-.2h.7l.3.3c1.6-.3 3.2-.5 4.8-.7-.2.2-.4.3-.5.5s-.3.3-.2.5c.5-.1 1-.2 1.4-.3l-.3-.5.5-.3h1.3c.1 0 .2.1.3.2-.2.1-.3.2-.5.3-.2.1-.3.2-.5.2.6 0 1.2-.1 1.7 0 1.1-.2 2.1-.6 3.1-1 .1-.1.2-.1.3 0v.1c0 .2-.3.2-.2.5l.5-.1c.1-.2.1-.4.2-.5l1.2-.3c0 .1.1.2.2.4l-.6.1c-.2 0-.4-.1-.4.1.4.1.8.2 1.2.2.5.2 1.1.2 1.7 0l.6.3.9-.3 2.8-.3 1.2.5.5-.4 1 .4c.6-.2 1.3-.2 1.9 0 .6.1 1.2.3 1.8.5.2-.1.3-.2.5-.3.2-.1.3-.1.5-.2.6.1 1 .6 1.5.3v-.3c.4-.2.8.3 1.3 0l.1-.7 1.1-.2.5-.4c.3.1.6.1.9.2.4.2.8.1 1.1-.1.1.2.2.3.2.4.1.1.2.3.3.5.2 0 .4 0 .5.2h1c.2 0 .4 0 .4-.3l-.9-.4c.5-.1 1-.3 1.4.1l.6-.1.1.4c.5.1 1.1 0 1.6-.2.3-.1.5-.1.8 0l.6.4c.4 0 .7.1 1 .1.3 0 .7-.1 1-.1l.3.5 1.6-.3 1.1.2-.3.4c-.4-.2-.7.1-1 .1l-1-.1-1.1-.2-.6.4h-2c0 .1 0 .2.1.3h2.1c.8-.1 1.5 0 2.2.3.4.1.9.1 1.3 0 .3.3.6.4 1 .4.3 0 .6.1.9.1l.3-.2-.2-.3.7-.2c.1-.4.1-.7.2-1 0-.1.1-.1.1-.2l.9.2c0 .2-.1.3-.1.5l1.2.4.4-.2h.9c.2 0 .5.1.7.2.3.2.6 0 .8.1.2.1.5.1.7.1.3 0 .5 0 .9.1-.2-.3-.3-.4-.6-.5l-.4.1v-.7l.7-.3c.4 0 .7 0 1 .1.3.1.6.1.9-.1.3-.2.6.1 1-.1l.8-.4 1.2.5.4-.3 1.3-.3 1 .1.6.3c.9-.2 1.8-.3 2.6-.1l.7.4c.4-.3.9-.3 1.3-.1.1.2.1.3.2.5l.5-.2.9.3c.2-.3.4-.6.6-1v-.2c-.4-.3-.7.2-1.1 0-.4-.2-.8 0-1.1-.5 0-.2-.2-.5.1-.7.1 0 .1-.1.2-.1 1.6 0 3.3.1 4.9.3.7.1 1.3.1 2 .2h1.7c1.5-.1 3 .4 4.5 0 .7 0 1.3.1 2 .2h.5c.1-.2.2-.4.3-.5s.1-.4.2-.6l1.3-.2c.2.3.7-.1.9.3l-.4.6.5.1.6-.6h.2c.5-.1 1 0 1.4.2.3.2.7-.2 1 0h2l.4-.2v-.5c0-.1.2-.2 0-.5-1.3.4-2.6.6-4 .7-.4-.4-1-.4-1.5-.2l-1.6-.6c-.1-.3-.2-.5-.3-.7.1-.2.3-.4.5-.4l1.6-.1c.6 0 1.1-.1 1.7-.1.4.2.8.2 1.2.2h2.2c.7.1 1.5.1 2.2 0h.1c.5.3 1.1.1 1.6.3.6.1 1.2.2 1.8.2l.6.1 1.1.1 1.2.1c.4.1.7.1 1.1.1.8 0 1.6.1 2.3.3.2.2.5.2.5.5-.5.2-.5.2-1.2 0-.3 0-.6.2-.9.1-.3 0-.6 0-.9.1-.2.3-.3.3-.5 0l-.3-.1-2.6.4c-.6-.1-1.2-.1-1.9 0-.2.2-.3.4-.5.6.6.1 1.1.2 1.7.3 1.2 0 2.5.2 3.7.3 1.4.1 2.8.4 4.2.8.7.3 1.4.5 2.2.5l.4.3 3.6.7c.2.1.2.3.1.5-.6.1-1.1 0-1.7-.1-.6-.2-1.3-.4-2-.4l-.2.3c1.2.1 2.3.3 3.4.7l.4-.1 1.1.4 2.9.2.2.5c-.7.2-1 .9-1.5 1.3-.5-.1-.9.3-1.4.1-.4.4-.9.5-1.4.3h-1.5c-.5-.1-1-.3-1.5-.4-.2 0-.3-.2-.5-.1.1.3.1.4.3.4l1.5.5c.3-.2.7.1 1.1.1.9 0 1.7.1 2.6.4.8.2 1.7.2 2.5-.1.3.2.7.3 1.1.2.2-.1.4-.1.6 0 .7.3 1.5.2 2.2.5l.4-.5.3.1c0 .2-.1.3-.1.5l.9.2.2-.2-.3-.4c.2-.4.5-.3.9-.3 0-.3.2-.4.3-.6l-.5-.2c.3-.6.6-.8 1.1-.8.9-.1 1.9.1 2.8.4.5.2 1 .4 1.6.4.4.4 1 .4 1.5.9l-1.1.9c-.4-.3-.9-.5-1.5-.6l-.5.5c-.2.1-.3.2-.5.2.1.2.3.3.4.5-.1.2-.3.2-.4.1-.2-.1-.3 0-.2.3l1.1.2-.6.3c-.6.5-1.3.7-2 .6h-1.2c-.1 0-.1.2-.2.3l1.4.4c1-.2 2 0 3 .3.6.2 1.1.3 1.7.4.8.1 1.5.1 2.2.3.8.2 1.6.2 2.4.1l1.2.6-.3.3c.2.5.5.2.8.1.7.2 1.5.3 2.3.2l.9.4-1.1.7c.3.2.6.2.8.4.2.1.5.3.7.5l.8-.1.5.3.2.6h.5l.2-.9c.6 0 1.1.1 1.7.3l.2.4h.7c.9.2 1.9.3 2.9.3.5.1 1 .1 1.5.3-.1.3-.3.4-.4.4l-.5-.2-.4.3-.7.2.2.2c.3.1.7.1 1.2.1-1.1.4-2.3.5-3.5.4l-.1.2 2.3.1 3.5-.4-1-.5.4-.9h1.5l.1.1s-.4.2-.2.5c1 0 1.9.1 2.9.2-.2.1-.4.1-.7.1-.2 0-.5.1-.6.3.3.3.6-.1.9 0l.3.2c1 .2 2 .2 2.9.2h6.3c1 0 2-.1 3.1-.1l.4.1c.2 0 .4-.1.5.2-.4.1-.7.2-1 .3-.3 0-.6 0-.9.1-.3.1-.7 0-1 .4 1 0 2 0 3-.1l.5.4 1.8-.5.8.1c.3-.3.7-.5 1.2-.6l.5.3.7-.4h1.2c.4 0 .8.1 1.3-.1.5-.3.8.1 1.1-.1l.8.4c-.9.2-1.6 0-2.3.2l.4.6c.9-.1 1.8-.3 2.6-.7.2 0 .3.1.4.1 1-.2 1.9-.6 2.8-1.1l.9.5.6-.3.3.1 2.5-.5.1.1-.1.1.1-.1 4.1-.5.7-.4.4.4c.3-.2.6-.4.8-.6.5 0 .6.5 1 .3v-.2c0-.1.1-.1.1-.2.9-.3 1.9-.3 2.8 0l-.6.5h.9c.3 0 .5.1.8.2.4-.4.9-.6 1.5-.9.5.1.8.6 1.3.4v-.5c.6-.3 1.3-.4 2-.2.4.1.8.1 1.3 0 0 0 0-.3.3-.2.1.1.1.2.2.4l-.5.6.5.3c.4-.1.7-.5.7-.9l.8-.2c.6.2 1.2.2 1.9.1l1.6-1.1.9-.1.5-.7.8-.2 1.5.2.9.7.5-.3c.6.2 1.2.2 1.8 0l.8.3c0 .2-.1.3-.1.5.8-.1 1.5-.2 2.3-.3 0-.3.1-.5.1-.7l1.1-.6v.2c-.4-.1-.9.4-1.4-.1v-.4c.5-.2 1.1-.4 1.7-.4.3 0 .6 0 .8-.1 1.4-.3 2.8-.3 4.2-.6h1.3c.6-.1 1.3-.1 1.9 0 1.1.3 2.2.1 3.3.4.3.1.7 0 1.1.1.3.1.7.2 1 .4l.2-.3-.7-.5-1.5-.3c-.3.2-.7.2-1 .1l-.5-.4-1.2.3-1.4-.6c-.2-.3-.1-.5-.4-.6-.6.1-1.3 0-1.9.1-.5.2-1.1.1-1.5-.1l-1 .2c-.3-.1-.6-.2-.9-.4-.4-.2-.7-.5-1.1-.8 0-.3-.1-.5-.1-.8.3-.1.7-.1.9-.4.5-.5 1.1-.6 1.6-1 .1 0 .1-.1.2-.1l.6.1.3-.1c.6-.3 1.3-.4 2-.2.3.1.7.1 1 .1.6-.2 1.2-.5 1.7-.7.2-.1.3-.2.3-.4-.8-.6-1.9-.5-2.9-1 .2-.1.3-.3.5-.4.5-.2 1-.3 1.5-.5 1.6-.6 3.3-.9 5-1 0 0 .1 0 .1-.1l-.6-1.2c.3-.3.6-.5 1-.6.9 0 1.7-.2 2.5-.5.1-.3.1-.6.4-.7h1.2l.5.2c1.8-.6 1.8-.6 2.7-1.4l.6.2 1-.4.4.3c.2.1.3.2.6.3.1-.3.2-.5.3-.7l.3-.2c.4.2.9.2 1.3.1l1-1.3c.5-.1 1.1-.1 1.5.2l.5-.2.5.2 1.2-.4c.6-.6.8-.6 1.5-.3-.1.1-.2.3-.2.4l.5.6.5.2.2.4c-.1.2-.2.4-.2.6l.2.2c.5 0 1-.3 1.2-.7-.1-.4-.2-.7-.3-1 .2-.3.4-.5.6-.6 0-.4 0-.7.4-.8.6.3 1.3-.1 2 .3v.5c.2.1.5 0 .7-.1.1-.1.2-.2.2-.3 0-.1-.1-.2-.1-.2v-.2c.6-.5.8-.5 1.4-.4-.2.3-.3.5-.4.7-.2.2-.4.4-.5.7l.2.6.9-.1c.4-.3.3-.9.9-1l.6.1c.1-.1.1-.3.2-.5.7-.4 1.2-.8 1.7-1.5.8-.2 1.6-.4 2.5-.5.8-.2 1.7-.2 2.5-.2l-.2.5c-.4.3-1 .2-1.1.8.4.1.4.1 1-.1l.4.1.6-.6c.2.1.4.2.4.5l-.9.7c.1.1.2.1.3.2h.4c.1-.4.4-.8.7-1l1.2-.6.2-.7c.2-.1.3-.2.5-.3.7-.5 1.5-.8 2.4-.7l.1.1c-.1.3-.6.3-.5.8.2-.1.4-.2.7-.3l.7-.2.3-.6c.2-.2.5-.3.7-.3l.1.1c-.1.3-.5.2-.5.6l.2.2.7-.2.4-.5c.5-.2.5.4.9.4.1-.1.2-.3.3-.5.4.4.8.8 1.2 1.3v.6c-.4.6-.4.6-.2.8l.7-.4c.4 0 .7-.1 1.1-.1.9-.2 1.9-.5 2.8-.8.7-.2 1.3-.4 2-.6.3 0 .5-.1.8-.1l.6.3.9-.3c.5.1 1.1.1 1.6-.1.1-.2.3-.4.4-.6l.7-.4c.6 0 1.1-.1 1.7-.2.5-.1 1-.3 1.5-.3.4.2.2.5.4.7l.8-.4c-.2-.2-.3-.4-.5-.6.7-.1 1.3-.4 1.9-.3l.2.3-.4.5.4.4.5-.5c-.1-.2-.1-.4-.2-.6.5-.4 1.1-.6 1.7-.5l-1.6.2c1-.3 2.1-.5 3.2-.6.4.1.9.1 1.3 0 .6-.1 1.2-.3 1.9-.3.7-.1 1.4 0 2-.2.6-.2 1.2.1 1.8 0l.3.6c.7.1 1.1-.5 1.7-.7h.7c.5 0 1.1 0 1.6.1h1.8c.6 0 1.3-.1 1.9 0 .6.1 1.2-.3 1.8-.1l4.3-.4h.2c1.1-.2 2.3-.4 3.4-.6.9-.1 1.7-.2 2.6-.3l.8-.1c.7-.1 1.3-.2 2-.3.7-.1 1.4-.1 2.1 0 1-.2 2.1 0 3.1-.3h.2l2.2.2c.6.6 1.6.6 2.3.1.3-.2.7-.3 1-.4l1.5-.4c.7.1 1.3-.2 2-.1.7 0 1.3 0 2 .1.3.2.4.6.2.9l-.1.1c-.6.2-1.2.5-1.8.9.1.3.2.6.6.8.1-.2.2-.3.3-.5.2-.2.3-.3.5-.4l.7.3c.6-.2 1.1-.7 1.8-.5l.4-.4.7-.1.5-.8c.6-.2 1.2-.3 1.8-.1l.2.4c-.1.2-.1.3-.1.5.3 0 .5-.1.7-.3l.6-.3.2-.5c1.4-.8 3-.7 4.4-1l1.4.1c.2 0 .4 0 .5.3l-.4.9.3.1.5-.3.4.1 1.8-.3.5-.6c.3-.1.7-.1 1 .1 0 .3.1.6.1.9.6.3.9-.2 1.3-.2.6-.1.8-.7 1.2-.9l.5.2c.2.5.4 1 .7 1.5l-.8.7-.7.2-.3.6-.5.3-1-.4c.2.5-.2.6-.4.9s-.1.4-.1.6c.2.1.6-.1.8.4-.2.3-.4.5-.7.7-.4.2-.7.4-1 .8v.3l.4.2c.2-.2.5-.3.7-.4l.9-.3c.1 0 .2-.2.3-.2-.1-.4-.3-.7 0-1.1l.5-.3 1 .2.6-.3c0-.5-.6-.2-.7-.6 0-.2.2-.3.3-.5l.3-.5.9-.7.4.2c.1-.1.3-.2.4-.4l.6-.3 1.5.3 1.1-.8.6.3c.3-.3.6-.6.9-.8.3-.2.7-.4 1-.6.3.2.5.4.4.7s.2.6.5.9l.3 1.4c-.4.5-1.1.3-1.5.7l-.7 1.2c-.6.3-1.1.5-1.6.8 0 0 0 .1-.1.3l.2.2c.3-.1.6-.2.9-.2.3-.1.7-.1 1.1-.1.5.1.8-.2 1.3-.2.1-.2.3-.3.5-.5.2-.1.3-.3.5-.4-.1 0-.3 0-.4-.2l.3-.9.6-.5c.1-.2.1-.4.2-.6.1-.2.3-.3.5-.2l.4.5.5-.1.3-.5c.5-.4 1.2-.1 1.4-.6l.6.2c.8-.6 1.9-.8 2.9-.7l.3.7h.5V66c.4-.5.8-.3 1.2-.4.4.4 1 .1 1.3.4 0 .2.2.3.2.6l-.2.4c0 .2.1.5.1.7 0 .1.2.1.3.2.2-.7.7-1 1.1-1.4l.9-.1 1 .5.8-.5.8.1c.4 1 1.3 1.8 1.3 3 0 .1-.1.1-.1.2 0 .4.1.8.1 1.2l-1 .2c-.1.4-.2.7-.3 1.1l.7-.2.3.3c-.2.3-.3.6-.4.9l-.1-.2c.4-.4.7-.7 1-1.1.4-.4.8-.7 1.2-1v-.6l.6-.3c.2-.3.3-.6.5-.8l.8-.5-.2-.2c-.7.2-1.5.2-2.2 0-.1-.4 0-.8.2-1.1l1.2-.8s.1-.1 0-.1c0-.3-.5-.2-.3-.6h.5l.6 1c0 .2 0 .5.1.7 0 .1.2.2.3.4l1.4-.9c.4.2.8-.4 1.3 0 0 .2-.1.4-.1.7v.7l-.3.3c-.3.2-.7 0-.8.3.2.5.8 0 1.2.4.2.3.4.9 1.1 1 1.2-.1 2.3-.5 3.3-1.1.1-.1.2-.1.3-.2.1 0 .2-.1.4-.1l.6.5.4 1.5c-.6.7-.1 1.6-.5 2.4l.7.8c.5-.1.9-.1 1.4 0 .5.2 1 .1 1.4-.1.8.2 1.6.2 2.4 0 .7.1 1.2.1 1.7.2 1.1-.1 2.2 0 3.2.2h2.2c.6.1 1.2 0 1.8-.1.7.1 1.3.5 2 .2.1 0 .2.1.2.1 1.2.1 2.3.2 3.5.2.2 0 .5-.1.7-.1l.4.4-1.3 1.1h-1.8l-.3.4 1.2.1-.9.6c.1.1.2.1.2.1.5-.1 1.1-.2 1.6-.3.8-.1 1.6.1 2.5.1.9 0 1.7.1 2.6.4.2.1.4.1.6.1.8 0 1.6.1 2.4.3.1 0 .3.2.4.3l-.3.4-.7-.1-.7.3c-.5-.2-1 .3-1.6.1l-.8-.5c-.1.1-.3.1-.4.1-.6 0-1.3 0-1.9-.1-.2 0-.4-.1-.5-.2l-.4.2v.3c.5.1 1 .2 1.5.2s1 .2 1.5.1c.2 0 .4 0 .6.1l1 .3 2.9-.4c0 .1 0 .2.1.3h.7l.3-.6c.3.1.7.1 1 0 0-.3-.1-.5-.1-.7.3-.3.5-.4.8-.1-.1.3-.2.5-.4.8h.5l.4-.7c.6 0 1.3 0 1.9.2l1.5.3c.2 0 .4 0 .4-.2-.2-.5-.9-.3-1-.9.5-.1.9-.1 1.4 0 .5.1 1 .2 1.5.2.4 0 .8 0 1.2.1.2.1.4-.1.8-.1.3.4 1 .3 1.4.6v.5c.6.1 1.2.2 1.9.2 1.4.1 2.7.2 4 .3h.4l4.3.7c1.5.3 3.1.5 4.6.8.2.1.4.1.6.1 1 .1 2.1.3 3.1.6.3.1.5.2.8.3l-.6.4h-1.2l-1.3-.6-2.4.3c.1.1.1.2.2.4.4.1.9.1 1.3.2.7 0 1.4.1 2.1.3.5.1 1.1.2 1.7.2.4 0 .9 0 1.3.1 1.6.4 3.3.8 4.9 1.1.9.2 1.8.4 2.7.4.2-.2.4-.3.3-.5-.1-.2-.4.1-.6 0l-1.8-.2c-.8-.3-1.6-.6-2.3-1.1-.7-.1-1.4 0-2.1.1l-.2-.8h.8c.3.1.7.1 1.1.2.6 0 1.2.1 1.8.3.6.2 1.2.3 1.9.4 1.5.2 3.1.5 4.6.9.5.2 1 .2 1.5.3.1.2.1.4-.2.5-.2-.1-.4-.1-.6-.2-.2 0-.5-.1-.7-.1-.3-.1-.5-.1-.8 0-.2.1-.4-.3-.6 0v.2c0 .1.1.1.2.2 3.2.2 6.4.8 9.6 1.7l1.7-.7c.5.4 1.1.7 1.8.8.1.2.2.3.2.5.6.1 1.1.2 1.6.4.8.3 1.7.4 2.5.6 1 .3 2 .4 3 .6 1 .3 2 .5 3 .7.2 0 .4.1.6.2.8.3 1.6.5 2.4.6.3.2.7.3 1 .4.3.1.6.2.9.1.3 0 .5.2.8.2.3 0 .6 0 .9.1l.9.3.7-.4c1 0 1.9.2 2.9.5l.7.6.8.2c.2-.1.3-.1.5-.1 1 .2 2 .4 2.9.4.7.1 1.5.2 2.2.3.2 0 .4.1.6.2.5.1.9.1 1.4-.1l1.6.5c.1 0 .2-.1.3-.1.3 0 .6.2.9.1.1 0 .3.2.3.2 1.3.1 2.4-.1 3.5-.1l1.2.5 1.2-.3.9.3.4-.2 2.9.2.7-.4c.2-.3.3-.4.4-.6l1.2-.1.6.5c.8-.4 1.7-.2 2.5-.5s1.7-.4 2.6-.6l.7-.6c.4.3.3 1 .9 1.2 0-.3.1-.5.1-.7l.4.5.8-.5.2-.9.6.5.9.1c.1-.3.1-.7.6-.9.3.1.3.7.8.7.4-.5.3-1.4 1.2-1.6l.5.7 2.6-.9c.2-.3.3-.4.5-.6 0 0 .1 0 0 0l1 .1 1.3-1.2c.5.1.9 0 1.3-.2.8-.4 1.6-.7 2.4-1 .3-.1.6-.3.9-.5.5-.4 1-.8 1.6-1.2V18.1c-1.7 0-2.7 0-3.6.1zm-974-3c-.2.2-.5.2-.8 0-.3-.1-.5-.4-.6-.7.4-.2.9-.1 1.4.2.2.1.2.3 0 .5zM5.1 83.2c-.1-.1-.1-.2-.1-.3 0-.1.1-.2.1-.4v.7zm.1 9l-.1-.3h.1v.3zm12.6 4.4c-.2-.2-.3-.5-.5-.7l.2-.4c.7 0 1.3.5 1.7 1.1-.5-.2-.9.1-1.4 0zm1.4.1l.1.1c-.1 0-.1-.1-.1-.1zm9.2-2.5c-.4.3-1 .3-1.5.3l-1-.8 1-.6 1 .3.5.6c.1 0 .1.1 0 .2zm1.5.2h-.3v-.1l.3.1zm2-5.2l-1.2-1.1c0-.1.1-.2.1-.3.1-.1.2-.2.3-.2h.2c.2.2.4.4.5.6.2.2.3.5.4.7 0 .2-.1.3-.3.4.1-.1.1-.1 0-.1zm6.4.6L37 91.1l-1 .1.3.6-.3.4-2-.7-.2-.3c.2-.4.6-.3.9-.5l.2-.2c.1-.3.3-.5.6-.6l.9.2c.5-.1.4-.4.4-.7.2-.1.4-.2.6-.4.2-.2.4-.4.5-.6l.6.4c0 .4-.1.7-.2 1zm32.3-77.7l.1-.1c0 .1-.1.1-.1.1zm17.8.2c-.9.3-1.9.4-2.8.2l-.5-.3-.5.5-.4.1-.5-.8c.1-.1.1-.3.2-.3.5-.2 1-.3 1.5-.3.4 0 .9 0 1.3-.1.7-.2 1.4-.1 1.9.4.2.2 0 .4-.2.6zm2 1.4h-.3v-.1l.3.1zm.2-1.2l-.6-.1c.1-.5.5-.6.7-.9h1.6l.3.6c-.1.1-.1.2-.1.2l-1.2.5-.7-.3zm1.8 1.6l-.8-.5c.1-.3.3-.1.4-.1l.6-.3h.3c.4.3.8-.2 1.1.1.1.4-.1.6-.4.7l-1.2.1zm5.1.9l-.7-.2-.4.2c-.3 0-.6-.3-1-.1-.4.2-.7-.1-1 0s-.7 0-1.1 0c.6-.4 1.4-.5 2.1-.4.2 0 .5 0 .7-.1l1.8.3-.4.3zm2 .2l-.7-.4.4-.3.7.3c.1.3-.2.3-.4.4zm29.5-2.5c.7-.1 1.4-.1 2.1 0l.4.6-1 .1.2.4-.7.1-.9-.4c-.2-.3-.3-.5-.1-.8zm-1.9-.1l1 .2.2.3c-.1.1-.1.2-.2.3-.3.2-.6-.1-.9-.1l-.4.3h-.1c-.1-.5.1-.8.4-1zm-7.1.4l1.6.1.6-.5.8.1 1.6-.5 1.5.9c0 .6-.4 1.1-.9 1.5-.9.1-1.9 0-2.9 0-.6-.1-1.1-.2-1.6-.4-.7.2-1.4 0-1.8-.5l.3-.4c.2 0 .4 0 .6-.1-.1-.1.1-.1.2-.2zm-2.2-2c.3 0 .6-.1.9-.1.3 0 .6.1.7.4l-.3.3c-.3.1-.5.1-.8.1l-.8-.5c.2-.1.2-.2.3-.2zm-2.5 2c.3-.1.7-.1 1-.2.3-.3.8-.4 1.2-.3.3.1.6.3.8.6l-.9.8-.5-.2-.3.2c-.3 0-.6 0-.9-.2-.2-.1-.5-.3-.7-.4l.3-.3zm1.7 1.2c-.1.1-.4.1-.5 0l.2-.4c.1.1.3.2.3.4zm-1.4-.3l-.3.3c-.1-.3 0-.4.3-.3zm-10.1 1.3l-1.7.3c-.8 0-1.6-.3-2.3-.7.1-.4.5-.3.7-.5l.3-.4.9-.4c.6.1 1.3 0 1.9-.3.3.1.5.4.6.7 0 .2.3.4.4.6l-.8.7zm3.3-1.2l-.7.3c-.4-.1-.7-.4-.7-.8l-.1-.1-.6.2-.4-.3c.5-.4 1.1-.3 1.7-.6.1.3.3.5.4.7.2-.1.4-.1.5-.1h.4c0-.2-.1-.4-.1-.5l.8-.3c.2.1.5.1.7.2h.8c.4.4.4.4.4 1l-.5.5-.4-.1-2.2-.1zm41.1 4.3c-.9-.2-1.9-.2-2.8 0-.5.1-1 .1-1.4-.1l-.4.2h-.2c-.8-.2-1.6-.3-2.5-.3-.5-.1-.9-.1-1.4 0-.5.1-.9-.2-1.3-.2h-4.5c-.6-.3-1.3-.3-1.9 0l-.6-.4c-.8-.1-1.5 0-2.3.2l-1.1-.6c-.3.1-.7.1-1 .1-.3 0-.6-.1-.9-.1.1.3.1.4.1.6l-1.7.4-1-.5c.1-.2.1-.3.1-.5l-.2-.4h-.3c-.5.4-1.1.6-1.8.6-.1 0-.2.1-.3.2l-1.4-.4-.3-.5-1.8-.7c-.3.1-.6.2-.8.3h-.7l-.4.6-1.3.4-.5-.4v-.5l-.6-.1-1.8.4-1-.2-.7-.7c.1-.2.1-.3.3-.3s.7-.1 1-.1h2.2c.6.1 1.1 0 1.6-.2l.7.5 1.1-.2c.4.2.9.2 1.4 0 .3-.1.7-.1 1.1-.1.5-.1 1-.1 1.5 0s.9.2 1.4.2c1.1 0 2.2 0 3.3.1.4 0 .7 0 1.2.1.2 0 .5-.1.8-.1h1.4c1 .1 2 0 3-.3l.7.6c-.1.2-.3.3-.4.5.4.2.6-.2.8-.2l-.1-.4.3-.3c.3.1.6.3.7.6.2 0 .5-.1.6.3-.2.2-.5.2-.5.5.9.1 1.9 0 2.8-.1-.1-.1-.2-.3-.3-.3h-1.6c.5-.4 1.1-.6 1.4-.5.7.3 1.4.1 2 .3 0 .1-.1.3-.1.3-.2-.1-.5-.1-.5.3h1l.5-.6c.5-.2 1.1 0 1.6.3l-.6.2.3.3.8-.1h.1c.3.1.5.2.8.1.4-.1.9-.1 1.3 0 .7.1 1.3.4 1.9.6.5.1 1 .2 1.5.2l1.6.2c.2 0 .3.1.3.3 0-.1-.1-.1-.2-.1zm3.3-1.7c-.1-.1-.1-.2 0-.3.1.1.1.1 0 .3.1-.1 0 0 0 0zm13.5.9c.1-.1.2-.2.4-.1 0 0 .1 0 .1.1-.3.2-.3.2-.5 0zm.9-.9l.3-.2.3.2c-.1.3-.3.3-.5.3 0-.1-.1-.2-.1-.3zm6.5 1.4l-1-.3-.3.5c-.9-.2-1.8.1-2.7-.4l-1.4.5c-.7-.1-.7-.1-1-.5.2-.4.7-.1 1-.4v-.5l.5-.4.4.1c.9.3 1.9.4 2.9.4h1.7c.3.3.2.7-.1 1zm2.6.2c-.4.2-.9.2-1.4.1l-.1-.4 1-.2c.2-.4.2-.4.5-.5.3.3.3.7 0 1zm2.7.3c-.5 0-.9-.2-1.1-.6 0-.1 0-.3.1-.6h.9l.7.8c-.1.3-.4.3-.6.4zm1.6-2.2c-.5.2-1 .3-1.5.5-.4-.2-.8-.3-1.2-.5-.2-.1-.2-.2-.1-.5.6.1 1.2.1 1.8 0 .4-.1.8 0 1.1.3-.1.1-.1.2-.1.2zm2.2 1.4l-.2-.1v-.1h.3l-.1.2zm10.2-.1l-.6-.3h-.1l-1-.2c0 .5.5.6.6.9-.1.1-.1.2-.2.4-.6.1-1.3.1-1.9 0-.6.1-1.2.5-1.8.2-.6.2-1.2-.1-1.7.3-.4-.2-.4-.7-.7-.9l.3-.4 1.4-.2c0-.1-.1-.2-.1-.4l-.9-.1.1-.1c.4.1.8-.3 1.2-.2s.8-.2 1.2-.1h4c.3 0 .6 0 .8.1l-.6 1zm6.4 4.4c-.3-.2-.7-.3-1.1-.4-.4-.1-.8-.1-1.1-.1.1-.1.1-.3.1-.3.3-.1.7-.1 1.1-.1.5 0 1 .1 1.7.1-.6 0-.5.5-.7.8zm1.9.3zm2.6.8l-.4-.3c.1-.2.2-.4.3-.7l.6.6-.5.4zm.8 0c-.2-.1-.1-.3.1-.4h.4c0 .4-.3.4-.5.4zm3.6-.3zm.5 1.3c.3-.5.3-.5.8-.3-.2.4-.5.4-.8.3zm1-1.3c-.1.1-.1.1-.3-.1.1-.2.2-.2.4-.1s-.1.1-.1.2zm1.5-4.5c-.3 0-.5 0-.8.1-.2.1-.4.1-.6.2l-.5-.2c-.5-.1-1-.1-1.6 0-.9.2-1.8.2-2.7.2-.2 0-.3 0-.5-.1-.4-.1-.8-.2-1.2-.2-.4 0-.7-.1-1.1-.2l-.4.2-.7-.4-.5.2-1.5-.6c-.7.3-1.4.4-2.1.3-.3-.2-.6-.4-1-.6-.3-.2-.8-.1-1.1-.4.2-.3.6-.2.9-.3s.5-.3.7-.4c1-.2 2.1-.2 3.2.2 1.3-.4 2.7 0 4-.1l2.2.5.4.5c.1-.1.3-.1.4-.2.2-.2.5-.4.8-.5.3 0 .6.1 1 .1h2.4c.4 0 .8.3 1.4.2-.4.7-1.2.8-1.1 1.5zm4.9-.1l-.9.4-.6-.5c-.1-.3 0-.5.3-.7.4-.3.6-.3 1.2-.2.2.3.1.7 0 1zm7.4-2.8c-.3-.1-.5-.1-.8-.2-.2 0-.5 0-.7.1l-.6-.4-.7.2h-.1l-1.3-.3.5-.5.5.1.4-.3h.2c.5.2 1 .2 1.5 0 .4-.1.8-.1 1.2 0 .4.6.4 1-.1 1.3zm8.4 5.8h-.7c0-.2 0-.3.1-.4l.7.3c-.1 0-.1.1-.1.1zm3.3-4c0-.4.3-.3.5-.2l.1.3c-.2.2-.4.2-.6-.1zm9.1-5.2l1.3-.4c.1 0 .2 0 .2.1.1.3-.2.4-.3.6-.5.2-1 .1-1.2-.3zm1.3 62.2zm.3-57l-1.3-.4c.1-.4.3-.4.5-.6l1.1.1.8.5-1.1.4zm2-2.4c-.5-.1-1.1 0-1.6.2l-.3-.4c0-.1.1-.1.1-.1l2-.5c.3.1.7.1 1 .2.3 0 .6 0 .9-.1.2.1.3.3.1.5h-1.1c-.3.1-.7.2-1.1.2zm2.8 6.7h-.7c-.2 0-.4.2-.6 0-.2-.2 0-.3.1-.5l1.2-.2-.7-.4v-.2l.6-.2.8.3c0 .1.1.2 0 .2-.2.2-.4.5-.7 1zm.9-8.9l-.8.2-.5-.3-.5.6h-.8l-.2-.3c0-.1 0-.2.1-.2.3-.3.7-.5 1.2-.5h1.4c.1.1.1.2.2.3l-.1.2zm2.2.4l-.5-.4-.6-.4h1.2l.3.4-.4.4zm2.3 3.4l-.5.1-.6-.8.2-.3c.3-.1.7-.1 1.1 0 .1.4-.3.6-.2 1zm2.6 4.2c.1-.1.2-.2.3-.1.2.1.6.1.6.5-.3.1-.7-.1-.9-.4.1 0 0 0 0 0zm.4-7.7c-.5 0-1 .1-1.6.2l-1.4-.3v-.1l.8-.7c1.3-.2 2.6-.4 3.9-.4l.4.2c.8.2 1.6-.2 2.4.4l-.2.5c-.1 0-.2.1-.3.1-1.4 0-2.7 0-4 .1zm3.5 7.1l.2-.3 2.1.2.3.6c-.9 0-1.8-.2-2.6-.5zm5.4-3.2l.1.4c-.1 0-.1 0-.2.1-.3-.1-.6-.3-.8-.5l-1.3-.2-.6.3.1.5s-.1.2-.2.2c-.3 0-.6.1-.9.2-.2 0-.3 0-.5-.1l.2-.5.5-.1.5-.1c-.4-.2-.8-.4-1.1-.6s-.8.1-.9-.5c.3-.1.7-.2 1.1-.3l1.1-.4c.8.3 1.8-.2 2.8.2 0 .2-.1.3-.1.5l.8.1c0 .5-.4.6-.6.8zm.3-3.8c-.4-.2-1 .1-1.3-.2-.1-.2 0-.5.3-.6h1.6l.2.2v.1l-.6.5c-.1-.1-.1 0-.2 0zm.4 7.5l-.1-.3c.2-.2.4-.2.6 0-.1.2-.3.3-.5.3 0 0 0-.1 0 0zm2 .1c-.3-.1-.6-.3-.9-.4.7-.3 1.5-.1 2 .5-.4.3-.7 0-1.1-.1zm3.9-4.1h-1.7c-.1-.2-.2-.3-.3-.4.1-.3.4-.5.7-.5h.1c.2.1.4.2.7.3.2.1.4.1.6.2.1.2 0 .3-.1.4zm1 64.7l-.3-.1.1-.1.2.2zm.4-64.5l-.3-.3c.1-.1.2-.3.4-.4l.4.3.9-.4h1.1s.1.2.1.3l-.9.8-1.7-.3zm2.4 4.1c0-.1 0-.2.1-.5l.6.5c-.3.3-.5.2-.7 0zm7.4-4.4c-.3 0-.4-.1-.5-.3 0-.2.2-.3.7-.1 0 .1-.1.2-.2.4zm4 3.6l-.3-.3c.3-.1.3-.1.3.3zm2.7-4.7c.4.1.2.3.1.8l-.4-.5.3-.3zm.5 4.8c-.5-.1-1-.3-1.4-.7.6 0 1.2 0 1.7.2.1 0 .2.2.5.3l-.8.2zm4.5.2c.5-.3.7-.3.9-.1-.2.2-.4.1-.9.1zm9-3.6h-2.5c-.2-.2-.3-.4-.5-.6.4-.2.8-.2 1.2-.3.5.1.9-.1 1.4 0l1.1.3s0 .1.1.2l-.8.4zm2.5 5.1l-1.6-.5c-.1-.1-.2-.3-.2-.5.4-.2.9-.3 1.3-.4.4 0 .9 0 1.4.1l.2.2c-.1.7-.7.8-1.1 1.1zm1-4l-.1-.3.4-.1-.3.4zm8.1 5.2l-1.1-.4 1.4-.2v.5l-.3.1zm1-.5l.3.3c-.4 0-.4 0-.3-.3zm3-1.6l-.2-.3 1-.3.3.4-1.1.2zm1.3-9.3zm6.1 15.6l-.7 1.1c-.5-.1-.8-.5-1.2-.7l.4-.4c.1-.1 0-.2-.1-.4.2-.5.6-.8 1.2-1 .3.1.6.2.8.3.3.1.5.1.8.1-.2.4-.2.4-1.2 1zm1.4-1.7l-.8.2c-.5-.2-1-.4-1.5-.8.4-.1.9-.4 1.2-.3.4.1 1-.3 1.5.2l-.4.7zm.4 2c0-.2.1-.3.3-.2 0 0 .1.1.1.2-.2.2-.3.2-.4 0zm2.3-12.6c0 .1 0 .1-.1.2-.2.1-.3-.1-.3-.2.1-.1.2-.1.4 0zm.8 8.2c-.5-.2-1-.2-1.4-.6.1-.1.1-.2.2-.3.6-.2 1.2 0 1.7.4l-.5.5zm.7 3.9l.6-.5.5.6c-.7.5-.7.5-1.1-.1zm1.8-2.3l-.3.5-.9-.1c.1-.4.3-.7.4-1.1.4-.1.9-.1 1.3.1 0 .5-.4.5-.5.6zm9.7-.5c.1.1.1.2.1.3h-.1v-.3zm-7.4-9.6c.4.2.4.2.2.6l-.5-.3.3-.3zm7.9 11c-.4.2-.8.4-1.2.7l-.8-.2-.5-.5h-.4l-.7.4h-.9c-.3 0-.5-.1-.7-.1-.2 0-.3.1-.4.2l.6.5v.6c-.3.3-.6.1-.9 0l-1 .2-.6-.3-1.2.2-.4-.4c.1-.2.3-.4.3-.6.1-.2.2-.4.2-.7 0-.2-.2-.3-.3-.5.3-.3.7-.4 1.1-.4l.5.2 1-.3 1.4-.8h1.6c0 .2-.1.4-.1.5l.5.3h.1l1.7-.3.6.3.7.3c-.1.5-.1.7-.2.7zm1.3.1l-.2-.4.4-.6c0-.2-.1-.4-.1-.5.8-.2 1.6-.2 2.5 0v1c0 .1-.1.1-.1.1-.8.3-1.7.5-2.5.4zm2.7 3.8c-.3.1-.6.1-.9-.1v-.2c.3-.2.7-.2 1 0l-.1.3zM357 26c-.1.1-.2 0-.5 0l.5-.5c0 .3.1.4 0 .5zm.6-1.3l-1.1.7c0 .2-.1.3-.1.5-.4.2-.4.2-.8-.3l-.9-.2-.5-.8c-.4-.3-.7.1-1 .2s-.4-.3-.4-.6c.7-.3 1.4-.3 2.1.1 1-.3 1.1-.3 3-.1-.2.3-.2.4-.3.5zm.8 2v-.4l.8.4h-.8zm.9-1.1l-.7-.4c.1-.2.1-.4.2-.5l1.1.2c-.2.4-.2.4-.6.7zm1.9 2.3l-1.3-.2c.2-.3.5-.2.7-.2.2-.1.4-.1.9-.2-.1.3-.2.4-.3.6zm-.3-1.2c-.2 0-.4 0-.6-.1-.1 0-.2-.1-.3-.2l.6-.3c0-.2 0-.3.1-.5l-1-.8-.2-.4.3-.2 1.4.1.3.3 1.2-.3 1 .2c.4.5-.3.8-.1 1.2-.2.2-.5.2-.7.2l-.6-.4-.3.5c.2.3.6.2.7.6-.1.1-.1.2-.2.2-.6 0-1.1 0-1.6-.1zm1.8 1l-.4-.2c0-.1 0-.2.1-.2.3-.2.7-.4 1-.5.1 0 .2 0 .2.1.1.1.2.3.3.4l-1.2.4zm3.9-2.3v.3l-.1-.1s.1-.1.1-.2zm2 2.7l-.7-.1-1.1.5-.3-.2c0-.3 0-.4.7-1 0-.1-.1-.2-.1-.3l-.1-.3c.4-.3 1-.5 1.5-.4l.3.5c0 .2-.1.3-.1.4l.2.5-.3.4zm1-2.1l-.7-.4-.6.2-.3-.3.6-.8h.7l1 .6c-.3.5-.3.5-.7.7zm5.9.4c-.1.2-.1.3-.2.5-.3.3-.6.4-1.8.3-.4.4-.9.2-1.4.3-.1.3-.1.5-.2.7l-1.3.6-.6-.2c.1-.2.1-.4.2-.6.7-.2 1.3-.6 1.8-1.1l-.5-.4c.2-.4.6-.1 1-.4.2-.5.6-.9 1.1-1.2.5-.2 1.1.1 1.8 0 .1.2.1.4.1.5l-.4.3.4.7zm11.5.2c.2.2.6.3.6.8s-.4.3-.6.4l-.4.5c-.5.2-1.1.2-1.6 0l.5-.9.6-.4c-.1-.3-.4-.2-.5-.3-.2-.9-.1-1.1 1-1.5.1-.2.1-.4.2-.6.2.2.4.5.6.6.2.2.4.3.5.4-.1.7-.7.6-.9 1zm.4-1.8c.2-.2.4-.2.6 0-.2.1-.4.1-.6 0zm6.5.8c-.1-.2-.1-.4-.2-.7l.7-.2c.4.3-.3.6.2.9h-.7zm6 .7c-.1 0-.2 0-.2-.1-.2-.3-.6-.3-1-.5.5-.4 1.2-.5 1.9-.3-.1.6-.4.7-.7.9zm2.7-1.3c-.1 0-.1-.1 0-.4l.3.1c0 .3-.1.4-.3.3zm.3 64.2c.5-.3.5-.3 1.4.1-.4.2-.9.2-1.4-.1zm4.5-64.7zm2.8 63.6c0-.1-.1-.1-.1-.2 0 0 .1-.2.1-.3.6-.4 1 0 1.7.2-.4.4-1.1.5-1.7.3zm7.1.3c-.3 0-.6.2-1-.3l.6-.4.6.4c.3-.1.6-.3.9-.1-.3.3-.7.4-1.1.4zm5.3-3.8v-.1h.2v.1h-.2zm7.1-5.7c0 .2.1.2 0 .3 0 .1-.1.1-.2.1s-.1 0-.1-.1l.3-.3zm-3 9.5c.1-.1.2-.1.3-.1.3 0 .6.2.9.4-.4 0-.8 0-1.2-.3zm1.3-1.2c-.2.1-.5-.1-.5-.3.2-.2.4-.1.6 0v.1l-.1.2zm-.8-2.5c-.5-.1-1 .1-1.5-.1-.1 0-.1-.2-.2-.3.3 0 .6-.1.9-.2.2-.1.5-.2.7-.3l2.2.4.2.3-.2.3c-.7.1-1.4.1-2.1-.1zm2.2 4.4l-.3-.3c.3-.4.3-.4.7-.2.1.3-.1.4-.4.5zm1.4.5c.1-.1.1-.2.4-.1l-.4.1zm2.9-6.8s.1-.1 0 0c.1-.1.1 0 .1 0 .1 0 0 .1-.1 0 .1.1.1 0 0 0zm1 6zm.8-3.7c-.6.1-1.2 0-1.7-.3l.3-.4c.5-.2 1 0 1.4.3v.4zm3.1-.2c-.2.2-.4.4-.6.3s-.5.1-.8.1l-.6-.3c-.1-.4.1-.5.4-.6l.6.1.4-.4h.6c.2.3.1.6 0 .8zm.7-.6c0-.1-.1-.2-.2-.3l.4-.3.3.2c0 .4-.2.5-.5.4zm.4 5.4c.1-.1.3-.1.5 0-.1.2-.3.2-.5 0zm0-4.5c-.1-.2 0-.3.2-.3h.3c0 .4-.1.5-.4.4l-.1-.1zm4.3-6.5h.6c.7 0 1.4-.1 2-.3h.4c.1.3 0 .4-.3.6l-.4-.1c-.8.1-1.5.7-2.4.3.1-.2.1-.3.1-.5zm2.7 3.9l-.3.1v-.1h.3zm-.9 2.5l-.4-.4c-.3 0-.6 0-.9-.1-.3-.1-.6 0-.9-.2-.3-.1-.6-.2-1-.2l.1-.3c.3.1.5.1.8.2h.7c.5 0 1 0 1.4.1.2.1.4.1.6.3v.6h-.4zm2.2-1.2c-.5.1-.9.2-1.4.3l-2-.6c.5-.2.7-.3 1-.4.1 0 .3-.1.5-.1.5.1 1-.1 1.5.1.3.1.5.1.8.2 0 .3-.2.4-.4.5zm19.1-6.4l.1.2h-.1v-.2zm-1.3 5.7h.3c.3.2.7.4 1.1.6l-.1.4-.8-.1c-.1.3-.1.6-.2 1 .4.3 1.1.2 1.2.8l-1.1.3-1.3-.5c-.1-.2-.2-.4-.4-.6l1.3-.9-.4-.5.4-.5zm1.7 5.5c0 .1-.1.2-.1.2-.1 0-.2 0-.3-.1 0-.1 0-.2.1-.3l.3.2zm-1.3.2c-.4-.2-.9.1-1.2-.3l.2-.3 1.3.3c0 .2-.1.3-.3.3zm-3.1-9.4c.3 0 .5-.1.8-.2.2-.1.4-.2.7-.4l1.1.4c-.4.4-.8.7-1.2 1-.6.2-1.2-.1-1.7.4-.1-.2-.1-.3-.1-.4.2-.3.3-.6.4-.8zm.5 9c-.2.2-.6.2-.8 0 0-.4.2-.6.5-.6s.4.4.3.6zm-1.9-71.6l.3.3-.4.4-.4-.3.5-.4zM460.2 84s.1 0 .2-.1.1.2.1.3c0 .1-.2.1-.4 0-.1-.1.1-.1.1-.2zm-8.4-5.7c.2.2.2.3.3.4-.4.1-.4.1-.3-.4zm1.6 7c-.5 0-1 .2-1.3-.5l1.2-.5.6.4-.5.6zm.5-1.8l-.3-.2c.1-.1.1-.2.2-.3l.5.1-.4.4zm2.9 4.4c-.3.1-.7.2-1 .2-.3-.1-.5-.3-.7-.5l1.5-.4.4.5c-.1.1-.1.2-.2.2zm1-3.4v.3c-.2.2-.3.1-.8 0 .1-.5.6-.6 1-.7.1.2.1.2-.2.4zm-.8-1.2c.3-.1.4 0 .3.3l-.3-.3zm.8-3h-.9l-1 .5h-1.7l-.4-.4.3-.5c.7.1 1.4-.1 1.9-.4.9-.2 1.7.1 2.7 0l-.9.8zm11.1 10.3c-.2.1-.4.1-.5.2-.1.1-.3.2-.4.3l-1.6-.5-.8.5c-1.8-.3-1.9-.4-2.9-.1l-.4.4-.7-.5-.7.4c-.2-.1-.5-.1-.8-.2-.1-.1-.2-.1-.3-.2l-.5.2-.8-.5c.1-.4.2-.7.3-1l1.6-.3c.2.3.7-.1 1 .2.3.3.7.1 1 .2.3.1.7 0 1.1.1.4.1.6.1.8.1h.5c.7-.2 1.5 0 2.2-.2.4.1.7.3 1.1.4.4.1.7.1 1 .2.1.1-.1.2-.2.3zm.5-2c-.6.1-1.2.1-1.8.1l1.1-1 .9.3c.1.3 0 .5-.2.6zm-2.6 8l-.9-.1.7-.7.4.2-.2.6zm2.2 0c-.2-.1-.4-.2-.5-.4-.2-.2-.5 0-.6-.4.4-.2.9-.2 1.3.2 0 .2.1.4-.2.6zm1.5-.2l-.3-.5c.3-.3.7-.3 1 0l-.7.5zm2.5-2.8c-.1.1-.2.2-.3.4l-.3-.3c.2-.3.3-.2.6-.1zm-.7 1.8c0-.3.2-.3.4-.5l.9.1c-.6.3-.9.6-1.3.4zM484 17.3c.3-.1.7-.2 1-.1.9.2 1.8.2 2.7.1h.9l.6.5-.4.4-1-.2-.9.2-.7-.5c-.1 0-.2.1-.3.2-.1.1-.1.2-.2.2l-1.7-.3c-.1-.1-.2-.3 0-.5zm1 61.3c.1 0 .1-.1.2-.1h.6c.7-.1 1.4-.1 2.1-.1 0 .3 0 .5-.1.7l-.7.3-.7-.8c-.1.2-.3.4-.5.5-.2.1-.4.3-.6.4-.3-.2-.2-.6-.3-.9zm.4 1.3zm-4.1-60.4c.2-.2.5-.2.7-.1.4.2.9.2 1.3 0h.1c.4 0 .7.2.9.6l-.9.2-.4.4-1.8.2-.2-.3c0-.3.2-.7.3-1zm-1.4 59.7c.1 0 .2-.1.3-.1 1.1-.3 2.3-.4 3.4-.4 0 0 .1 0 .1.1v.4l-1.6.9-1.6-.7-.6.4h-1.1l1.1-.6zm.6 1c.3-.2.4-.1.4.1 0 0-.1.1-.1.2l-.3-.3zm.1 3.1c-.2.1-.5.1-.7 0 .2-.2.5-.2.7 0zm-1.2-.1c0 .3-.3.3-.5.4 0-.5.2-.4.5-.4zm.8.8c0 .1-.1.2-.1.3-.5.4-1.1-.1-1.6.3l-.2-.4c.7-.1 1.3-.4 1.9-.2zm-6.3-4.8l.4.1.5-.2c.6.3 1.3.3 2 .1l.7.3-.4.6-.6-.2-.8.9c-.6.4-1.5.2-2.3.4-.1 0-.3-.1-.4-.1-.1-.1-.3-.1-.4-.2.1-.3.2-.5.2-.8l-.6-.3 1.7-.6zm2.1 4.7c0-.3.2-.4.3-.4.4-.1.6 0 1 .4l-.3.3-.6-.2-.4-.1zm.4 1h-1.5l-.1-.4.5-.3.9.2.2.5zm-4.4-8.4v.3c-.3.2-.7 0-1 0l1-.3zm-2 3c.5-.1.9-.3 1.2 0 0 .4-.3.5-.6.6-.3.2-.6.1-.8-.1l.2-.5zm4.8 12.3c-.1-.1 0-.1.1-.1l-.1.1zm-.6-.8l-.3-.3-.5.2c-.1-.2-.1-.4-.2-.6l-.4.3c-.2 0-.4-.1-.6-.1h-.6l-.6.4c-.4 0-.7-.3-.7-.6 0-.1.1-.1.1-.2.3-.3.7-.4 1.1-.4.4 0 .7 0 1.2-.1l1.5.3c1.4-.2 2.9-.4 4.3-.6h.7c-.6.2-1.2.5-1.8.9l-1.5.1c-.2.2-.5.4-.6.4-.5-.2-.7.2-1.1.3zm-4-3.4zm1.5.2c.6 0 1.2.1 1.7.4 0 .2-.1.4-.3.4h-1.5l-.3-.5.4-.3zm-.4-.6c.1-.2.2-.3.3-.5 1.1.2 1.1.2 1.4.5-.6.1-1.1.1-1.7 0zM478 91c-.3.1-.7.1-1 .2.3-.5.8-.3 1.2-.6.1.3-.1.4-.2.4zm-2.7.3l.1-.1c0 .1-.1.1-.1.1zm1.5 2.3zm.4 0zm1.5-1.5l-.1.7c-.1 0-.1.1-.1.1l-1.6.3c-.1-.2.1-.5-.3-.6l-.8.3-.5-.5c.8-.5 1.7-.7 2.7-.7.9-.4 1.9-.2 2.8-.4h.3c0 .4-.3.2-.5.4l-.2.5-.7.3-.3-.6-.7.2zm2.1-1.7v.2h-.4c-.2 0-.4.1-.6.2h-.5l.2-.4h1.3zm-1.2-1.3c.1-.1.2-.1.4.1-.2.1-.3.2-.4-.1 0 .1 0 0 0 0zm-.2 4.3c0-.1.1-.2.1-.3l1.5-.2c0 .1 0 .2.1.4-.6-.1-1.1.3-1.7.1zm1.4-3.9l-.5-.4c0-.3.1-.4.3-.4.2.1.5.2.7.3l-.5.5zm.7-.4l.8-.5.6.3c-.1.4-.4.7-.8.8-.3-.1-.6-.3-.6-.6zm2.5-1.5c-.5.1-1 0-1.3-.4 0-.1.1-.3.1-.4.6-.3 1.3-.4 2-.3.1.1.1.2.2.3l-1 .8zm.1 1.1c-.1.1-.1.2-.2.2h-1v-.4l.8-.3.4.5zm.1 2.3l-.5-.1-1 .5-.7-.4c0-.1.1-.2.1-.2.8-.3 1.6-.4 2.4-.5h.6c-.1.5-.6.5-.9.7zm1.2-2h-.3c-.2-.1-.4-.2-.7-.3l1.1-.4.3.2c-.1.3-.1.3-.4.5zm1.2-1.8c-.1-.3-.1-.5.1-.6.3.2.3.2-.1.6zm.3 1.2c-.1-.3-.1-.3.4-.3l-.4.3zm.7-4.4l.3.1-.1.1c-.1-.1-.2-.1-.2-.2zm.2 4.6c-.1-.4-.1-.4.3-.3l-.3.3zm1-5.4c-.2.1-.3.3-.5.4l-.9-.3c-.8.7-1.4 1.7-2.6 1.9-.9-.2-1.8-.3-2.8-.2l-1.2.5c-.7-.1-1.4 0-2 .2h-.8c-.7.1-1.4.2-2.1.4l-1.4-.1-.7.4c-.3 0-.5-.1-.8-.1h-.7l-1.1-.4s-.1 0-.1-.1 0-.1-.1-.1c-.1-.1.1-.3.1-.4-.1-.4-.5-.1-.7-.2-.2 0-.2-.2.1-.6 1.1 0 2.3-.3 3.3.3v.2c0 .1-.1.2-.1.4.4.2.9.2 1.3-.1 1 .3 2.1.3 3.1-.3.3.3.6 0 .9.1.3.1.6.1.9 0 .2-.1.5-.1.7-.1h1.2l.3-.3c-.2-.4-.5-.1-.9-.2 0-.3.1-.5.1-.8.3-.4.8-.6 1.3-.5.1 0 .2.2.3.3l-.7.3.1.1c.4 0 .7-.1 1.1-.1v-.5l.3-.2c.5.3.3.8.4 1.2.3 0 .5-.3.6-.5l-.2-.6.3-.3c.8-.2 1.6.1 2.4-.4l1.1.4-.4.3c.4.1.9.1 1.3 0 .1.1-.3-.1-.4 0zm2.7 2.7l-.3.3c-.2-.3 0-.3.3-.3zm-.8-68.6l.3.4c-.2.2-.3.2-.4 0s.1-.2.1-.4zm-.5 72.8zm-.1-4.6l.3-.4c.2.4.2.4-.3.4zm1.4 4.5l-.7.1c-.2-.2-.3-.3-.1-.6.4-.3.7 0 1 .2-.1.1-.1.2-.2.3zm.6-4.8l.3-.4.3.4c-.2.1-.4.2-.6 0 0 .1 0 0 0 0zm2.2 3.7c-.3.2-.5.3-.8.4-.2.1-.6 0-.7-.3l.1-.2 1.4-.4c.2.3.1.4 0 .5zm2.2-3.7l-.4-.2.3-.3c.2.1.3.3.1.5zm0-2.9c.2-.2.5-.2.7 0-.3.3-.5.2-.7 0zm3.8-1.1l-.7.4-.2.5c-.2.2-.6.2-.8 0l-.1-.3-.7-.1c.2-.7 1-.6 1.1-1.2l.8.1h.5c.2.2.2.4.1.6zm6-64.9c-.6.3-1.3 0-2 .1.3.5.9.3 1.3.5l-.3.5h-2.4c-.3-.1-.4-.2-.4-.5.2-.3.4 0 .6 0 .2 0 .3-.2.4-.3l-.4-.5c.2-.1.4-.3.6-.3.8-.2 1.6-.2 2.4 0l.2.5zm1.9 69.1zm6.7 2.5c.2-.3.2-.3 1.5-.5-.5.6-.5.6-1.5.5zm4.7-1.3c-.2.1-.3.2-.5.2.3-.5.3-.5.7-.5 0 .2-.1.3-.2.3zm1.6-.1l-.3-.2v-.1c.3-.3.7-.5 1.2-.4 0 0 .1.1.2.3l-1.1.4zm7.4-1.8zm53.6-66.3c-.2.4-.3.6-.7.7l-1.2-.4c-.2-.3-.4-.6-.6-.8.9-.5 1.5-.3 2.5.5zm-8.3.6l-.2-.1c.1 0 .1.1.2.1zm-7.9-1.6h.6c.2 0 .4-.1.5-.1-.1.4-.1.4-.6.8l-.6-.3c0-.1 0-.2.1-.4zm-4-.1c-.1.1-.4.1-.5 0 .2-.2.3-.2.5 0zm-12.6-.7c.1-.1.2-.1.2-.1h1.6v.3l-.8-.1c-.4.1-.5.6-1.1.4v-.5zm-.6 63.6l-.1-.3h.1v.3zm2.1-59.5h-2.3l-.5-.2-.6.1-.2-.3c.4-.5.9-.5 1.4-.7l1.3.4.7-.2.4.3c0 .2 0 .5-.2.6zm2 58.2c0-.2-.1-.3 0-.3s.2 0 .4-.1l-.4.4zm.9-.8l.3-.3c.1.2.1.2-.3.3zm.7 0c.2-.2.4-.2.6 0-.3.2-.4 0-.6 0zm-1-59.1h-2.7l-.3-.6s-.1-.1-.2-.1c-.7 0-1.4 0-2-.1-.2 0-.4-.1-.5-.3.2-.2.5-.1.8-.1.2 0 .5 0 .8-.1.3-.1.5-.1.7-.1.2 0 .6 0 .8-.1l.9-.1s.1.1.2.1c.8 0 1.5.1 2.3.2.5.1 1 0 1.4.2h.9c.4-.2.9.1 1.3-.1.1 0 .3-.1.4-.1.9.3 1.8 0 2.7.3.1 0 .3.1.4.2l.3-.1 1 .5c-.3.3-.7 0-1 .3l-.5-.3c-.3.1-.6.4-.9.1l-1.1.6c-.5-.2-1.1 0-1.6-.1s-1-.1-1.6 0l-.6-.7-1.9.5zm2.1 58.8c-.1-.1-.1-.2-.1-.3h.1v.3zm1.1 0c0-.1-.1-.1-.1-.2l.1-.1s.1 0 .1.1c0 0 0 .1-.1.2zm1.2-.3c-.1-.1 0-.2 0-.3s.1.1.1.1c0 .1-.1.2-.1.2zm.5 1c.2-.3.2-.3.6-.2-.2.3-.2.3-.6.2zm4-.6l.2.1c-.2.1-.2 0-.2-.1zm0 0c-.3 0-.5.2-.8.1-.3-.1-.4.2-.6.3-.2.1-.5.1-.7 0v-.5l-.5-.3.4-.5.5.2c.6-.3 1.2-.4 1.8-.1 0 .3-.1.5-.1.8zm-.9-9.2c.1 0 .3-.1.5-.1s.3 0 .5.1c-.5.2-.7 0-1 0zm13.3 8.7c-.5.1-.9.1-1.4.1l-.6-.5.1-.2.8.2 1.1-.2.3.3-.3.3zm-.3-1c.2-.2.3-.2.5 0-.1.2-.3.2-.4.1-.1 0-.1-.1-.1-.1zm5-55.1c0 .2.1.4.1.7-.1.1-.3.1-.4.2-.4 0-.8.1-1.2.1-.6 0-1.1 0-1.7.2-.4.2-.9.1-1.3-.1-.3-.1-.7-.2-1-.2-.8-.1-1.6-.3-2.5-.4l-.8-.4c-.7.2-1.5.3-2.3.2h-.6c-.1 0-.2.1-.3.2l-1.2-.4c-1.7.3-3.5.3-5.2-.2l-.2.1-1.2-.2-1.2.7-.5-.4c-.9.1-1.8-.1-2.6-.6l.6-.5c1.4-.4 2.8-.4 4.2-.1.5 0 1-.3 1.5-.3.6.1 1.2.2 1.8.2.6 0 1.1 0 1.7.1.1 0 .2 0 .4.1l.3.3h2.1l1.1.5.5-.2h2.4l.3.4.7-.2c.3.1.7.1 1 0 .3-.1.7-.2 1-.2.5.1 1 0 1.4-.2.2-.1.4-.1.6 0 .5.2 1.2.2 1.7 0l1.1.3c.1.4-.1.4-.3.4zm0-1.3c-1.2.1-2.5 0-3.7-.2-.5-.1-1.1-.2-1.6-.4-.2-.1-.4-.1-.4-.4.6-.2 1.3-.3 2-.2.7.2 1.4.2 2.1.1.8.2 1.6 0 2.3.3h.8c.2 0 .4.1.6.1 0 .4-.3.5-.6.6-.5.1-.8-.2-1.2-.3l-.3.4zm4 57.6l-.9-.3v-.5c0-.2-.1-.1-.2 0-.5.2-1 .2-1.5.1.2-.7 1-.2 1.1-.9l.9.3.3.3c.7.1 1.4-.2 1.9.3-.5.6-1.1.3-1.6.7zm7.4-1.5c.2-.4.2-.4.7-.3-.2.3-.5.4-.7.3zm1.4.1c-.1 0-.3-.1-.4-.1.4-.4.4-.4 1.1-.2-.1.2-.4.4-.7.3zm.3-9.8l.2-.2.5.2c-.2.3-.4.2-.7 0zm.1 10.2c.4-.1.7-.1 1.1 0-.4.2-.8.2-1.1 0zm.7-10.3l.1-.1c0 .2-.1.2-.1.1zm3.5-43.1c-1.2.3-2.5.3-3.7.1l-.5.2c-.2-.1-.4-.2-.7-.2-.9-.1-1.7-.2-2.6-.4-.9.1-1.8-.3-2.7.1h-.9l-.8-.3c-1.4.1-2.8-.1-4.2-.4l-.6.1c-.3-.1-.4-.4-.5-.7l.8-.7h2.4c.4 0 .9 0 1.3.1h1.9c.2.1.5.2.7.2 1.6.1 3.2.4 4.8.3.4 0 .7 0 1.1.1.4.1.7-.2 1 .1.5 0 1 .1 1.6.1.7 0 1.3.1 1.9.4l.3.6c.1.2.3.3.3.4-.2.3-.5 0-.9-.1zm2.1 55.5h.4c-.1.2-.2.1-.4 0zm2.1.1h-.3v-.1l.3.1zm.6.1l-.2-.2.3-.3c.1.2.1.3.2.4l-.3.1zm2-7.5c-.3 0-.6.1-.9-.1-.2-.1-.1-.3 0-.4.3-.1.7 0 1 .2l-.1.3zm1.6-47.4c-.5-.1-1-.1-1.6-.1-.5.1-1 0-1.4-.3l-.6.2c-.4-.1-.8-.1-1.2-.2-.7.1-1.3-.1-1.9-.5-.2.1-.4.2-.6-.1l.2-.4c.7 0 1.4 0 2-.3.2-.1.5-.1.7-.1l1.3-.1.3.3c.3.1.7 0 .9-.2.9.3 1.8.5 2.8.5.3.3.7.5 1 .8-.5.7-1.2.7-1.9.5zm5.9 53.4c.1-.2.2-.1.4 0h-.4zm2.3 1.8l-.7-.3c-.1-.1-.2-.1-.3-.2.5-.3.6-.3 1.4-.1 0 .2-.2.4-.4.6zm3.5-54.4c-.6.1-1.2 0-1.8-.2-.3-.1-.7-.1-1 0-.3 0-.6 0-.8-.1-.2 0-.3-.2-.5-.1-.7.2-1.3-.2-2 .1-.7-.8-1.7-.3-2.6-.5.1-.2.2-.5.3-.7l.3.3 1.7-.3.4-.3c.2.1.4.3.6.4.3.1.5.2.8.2.5-.2 1.1-.2 1.6-.2.1.1.2.3.3.4.8.1 1.6.2 2.4.2.3 0 .7 0 .9.3l-.6.5zm1.3 53.2zm-.3-53.2c.2-.5.6-.8 1.1-.9l.3.4c-.4.2-.9.4-1.4.5zm1-2.4c0-.5.3-.4.5-.3l.2.3h-.7zM629.6 81c0-.2.2-.3.5-.4l.2.2c-.2.2-.5.3-.7.2zm2.2-.2l-.5-.1c-.1-.3-.2-.5-.3-.8.4-.2.9-.1 1.2.3 0 .3-.2.4-.4.6zm2.6-.5l-.4-.3c.1-.1.1-.2.1-.2.2 0 .4 0 .6.1l-.3.4zm4-60.4zm.2.4l.3.3c-.2.3-.3.5-.7.3.1-.3.1-.3.4-.6zm-1.2.6c-.1.1-.1 0-.1 0s.1-.1.1 0zm-1.2-.3zm.2 60l-.4-.4 1-.1.3.4-.9.1zm1.7-1.2c-.7-.1-1.5-.2-2.2-.3 0-.1 0-.2-.1-.3 1-.2 1.1-.2 4.7.5-.8 0-1.6 0-2.4.1zm2.4-1.6l-.5-.2-.3-.4-.4.3c-.2-.1-.5-.2-.7-.3-.3-.1-.6-.1-.9-.2 1.2-.3 2.5-.2 3.7.1-.2.5-.5.7-.9.7zm1.5-56.4l-.6-.3c.4-.4.4-.4.9 0l-.3.3zm.8 56.2v-.2h.1s0 .1-.1.2zm1.5-57.2l.4-.1c-.1.1-.2.2-.4.1zm.5-.1c.1-.1.2-.3.3-.4l.3.1c-.2.4-.5.2-.6.3zm1.1 57.5c.2-.2.4-.2.6 0-.2.2-.4.2-.6 0zm1.3 0zm8.4-59.3h-.3v-.1h.3v.1zm3.1.3v-.1.1zm.6-.4l.2-.2c.1 0 .2.1.3.2 0 0 .1.1.1.2-.2 0-.4 0-.6-.2zm1.4.1c-.1 0-.2-.2-.1-.2l.3-.3c0 .1.1.1.2.2l-.4.3zm18.9.5zm.8-1.9c-.1-.1 0-.1.2 0h-.2zm.2 1.4zm2.1 56.2c-.2-.1-.4-.3-.6-.4-.2-.1-.5-.1-.6-.4l.2-.3c.7-.1 1.4.2 1.9.7l-.9.4zm1.2-56.2zm2.5-2zm-.4 57.4h-.6l-.2-.4c.1-.1.1-.2.2-.2.4 0 .5 0 1.2.4-.2.5-.4.2-.6.2zm2-57.1l-.3.2c0-.1.1-.2.1-.3h.2c.1 0 0 .2 0 .1zm.5-.2zm44.3 5.2h-.2.2zm-10.2-.8c0 .2 0 .2.1.3l-.4.1.3-.4zm-.7.3c0 .1.1.1.1.2 0 0 0 .1-.1.1v-.3zm-.4-.2c-.2.4-.3.3-.5.2-.1.1-.3.3-.4.3h-.7c-.3-.2-.6-.4-.7-.8.8-.1 1.6 0 2.3.3zm-3 2.5l-.3-.3c-.1-.3-.1-.5.1-.7v.4l.8.6h-.6zm1.1.2l.1.1c0 .1-.1.2-.2.3L718 24c.5-.1 1.1-.2 1.6-.2zm-2.4-3.6l.4.3c-.6.4-.6.4-1 .3.1-.3.1-.3.6-.6zm-1.8-.4c.2.2.1.3-.3.4.1-.1.1-.2.3-.4zm-1-.1c-.1.1-.3.1-.4 0l-.1-.1c.2-.1.4-.1.5.1zm-2.6-.3c.3-.1.6-.1.9-.1l.2.3c-.4.2-.8.2-1.1 0-.1 0-.1-.1 0-.2zm-3.6 7.1l.5.1c0 .1 0 .1-.1.3l-.4-.4zm.3 1h-.3l.1-.1c0 .1.1.2.2.1zm0-9.1l-.2.3c-.3-.3-.1-.2.2-.3zm0 3.5c-.2 0-.3-.1-.4-.2.2.1.3.1.4.3v-.1zm-.5-.2l-.4.1-.2-.3c.3-.1.5-.1.6.2zm-.3 3zm-3.7-6.5c0-.1.1-.1.2-.2s.3.1.5.1l.7.1.4-.3c.5.2 1.1.3 1.7.3 0 .1 0 .2.1.3l-.8.2-.2.5-.1.1c-.4-.1-.8.1-1.2 0-.1-.2-.1-.5-.2-.7l-.3-.2c-.3 0-.5.3-.8 0 .1 0 0-.1 0-.2zm3.2.9l-.2-.1.2-.1v.2zm-4.2-1.3c-.4.3-1 .3-1.5.2-.1-.1-.1-.2-.2-.4.6-.3 1 .1 1.7.2zm-1.8.3c.3.1.6.5 1.1.4.1 0 .3.2.5.3-.2.2-.5.2-.7.1-.5-.3-1.2-.3-1.7 0-.2.1-.5.1-.7.1l-.6-.6c.4-.3.6 0 .8.1.4.1.8-.3 1.1 0l.2-.4zm-.4 2.8l-.4-.1c.2 0 .3.1.4.1zm-.8-.1zm-1-3.4c.6-.1 1.2-.1 1.8 0l-.4.4-1-.3-.6.1c.3 0 .3-.1.2-.2zm-1.7 1zm-.5 0zm1.5 1c-.5.2-1 .3-1.5.2 0-.2 0-.2-.1-.3.7-.4 1.1.3 1.6.1zm-.8 1.7s.1 0 0 0h.3v.1l-.3-.1zm.2 57.2l-.4.2-.6-.4c.1-.1.2-.2.2-.3.2-.1.4.1.5.2s.3.2.3.3zm-.5-57.8c.2-.3.4-.2.5-.2 0 .3-.2.2-.5.2zm-2.5-4c.3.1.5.3.5.6l-.2.2-.7-.3c.1-.2.2-.3.4-.5zm-4.8-.5zm1.3 2.2l-1.3-.5c.2-.1.4-.2.5-.2s0-.1 0-.1l-1.1-.1c-.1-.2-.3-.3-.5-.6l1.4-.1.5-.3.4.4c.4-.1.3-.5.7-.7h.6l.7.7c.2.2.5.4.8.6l-.2.3c-.5.1-1-.1-1.3-.5-.2.1-.4.1-.6.2-.2 0-.5 0-.7-.1l-.3.4c.9.3 1.9.5 2.8.4.6-.1 1.1 0 1.8 0l.5.2c.2.1.4 0 .5.3-.2.3-.4-.1-.6 0-.2.1-.5.1-.7.2-.7-.3-1.5 0-2.2-.4l-1.7-.1zm5 1.5zm-1.1-.5l-.6.6c-.4-.1-.5-.4-.7-.6 0-.2.1-.3.3-.3l1 .3zm-1.7-.3l-.4.4V19c.1 0 .3-.1.4-.1zm7.7 61.5c-.2 0-.3.2-.5.1-.3 0-.6 0-.9.2l-.4-.3c-.6 0-1.3-.2-1.9-.4h-.1c-.7.1-1.5-.1-2.2-.1h-.5l-.5-.4-.5.1c-.3-.5-1-.5-1.4-1 0-.2.1-.3.3-.4.4-.2.9-.2 1.3-.1.9-.4 1.7 0 2.6.2.3.1.5.2.8.3l-.4.5c.4.2.6 0 .8-.2l.2.3c.2 0 .4.1.5 0 .5-.3 1.1-.3 1.6-.1.2.1.5.1.7.2.3.4.6.6.5 1.1zm2.7-49.4c-.2 0-.2-.2-.3-.3-.1-.1-.2-.2-.3-.4-.1-.1-.2-.2-.2-.3-.1-.1-.1-.3 0-.4h.1c.6.2.8.7 1 1.1l-.3.3zm-.4-8.2h-.3v-.1l.3.1zm0 6v.3h-.1l.1-.3zm2 45l-.9-.2c-.2-.1-.2-.4-.1-.6.4-.3.9.1 1.3.1l.2.2-.5.5zm.5-47.7v.1h-.3v-.1h.3zm-.2-3.5zm.4 7.4c-.1.2-.2.4-.5.2 0-.1.1-.4.5-.2zm-.1 1c-.1-.4.1-.4.3-.3l-.3.3zm0-2.5v-.2c0-.1.1 0 .1 0l.3.3c-.2 0-.3 0-.4-.1zm1 2.2h-.3v-.1l.3.1zm0-9.6c-.1.3-.2.5-.2.7-.4.3-.6-.1-.9-.1l-.4.5-.4-.4-.4.1c-.3-.1-.5-.2-.8-.2-.3-.1-.8.1-1-.1-.2-.2-.6.1-.9-.1-.3-.1-.7-.1-1-.1l-.1-.4.8-.4c.3.2.6.5 1 .2-.1-.4-.5-.5-.7-.7-.3-.2-.6-.4-1-.5.7-.1 1.4-.2 2.1-.1.5.1.9.2 1.4.2.5 0 .7.6 1.3.5l1.3-.5c.4 0 .6.3.6.7 0 .2-.2.3-.5.3l-.4-.4-.3.5.5.3zm.3 11.8l.4-.2.4.3c-.4.3-.6.3-.8-.1zm.9-2.2h-.3.3zm.3 2l-.2-.4.6.1-.4.3zm.6-13.1h.3v.5h-.1c-.4 0-.2-.2-.2-.5zm0 9c.1-.2.2-.1.3 0v.1c-.1 0-.1.1-.2 0 0-.1-.1 0-.1-.1zm.2 3.7c0-.3.4-.3.7-.6-.3.8-.3.8-.7.6zm.9-1.2c-.1.1-.2.2-.3.4l-.3-.3c.1-.2.3-.4.5-.3 0 .1.1.2.1.2zm-.4-4.5c.1-.1.1 0 .1.1l-.1-.1zm-.4-4.6c-.1-.2-.2-.4-.4-.7.5-.1.9.2 1.3.2l.5.8c-.5.3-.9 0-1.4-.3zm1.1 8.9l.4-.1c-.1.3-.2.3-.4.1zm0-10.6c.1-.1.2-.3.3-.3h1.2l.3.3.3-.4 1.8.5h1.1c.1 0 .1.1.2.2l-.1.3c-.5.3-.8-.1-1.2-.2l-.5.2-.5-.4h-.7c-.1.2-.2.3-.4.5-.5.2-1 .2-1.4 0l.2-.5-.6-.2zm2.6 4.7c.4-.1.8-.1 1.1.1v.1c-.4.1-.8 0-1.1-.2zm.3.9zm-.6-3.7c.2-.2.4-.2.4 0h-.4zm.5.1l.4.1c-.2 0-.3 0-.4-.1zm-.5-.7l-.3.4h-.9c.3-.5.7-.5 1.2-.4zm-1.5 2s-.1 0 0 0l-.3-.1v-.1l.3.2zm-.4 7.3l.1-.2c.2.2.1.1-.1.2zm0-4l.3-.3c.1.3.1.3-.3.3zm.3 2.7zm.3-4.5h-.2V25l.2.1zm0-2.9c-.1-.1 0-.1.1-.1l-.1.1zm.1.9h.3c.1.2.2.3.3.5l-.3.3c-.2-.2-.3-.5-.3-.8zm.3 6.8c-.1-.1-.1-.1 0-.1s0-.1 0 .1c.2 0 .2-.1 0 0zm.1-2c.3-.5.7-.2 1.1-.1.4-.4-.3-.7 0-1.1.4.1.7.2 1 .3-.2.3-.2.3-.7.5.1.1.2.3.2.2.4-.1.8.1 1.1-.1.1-.1.4.1.5.2 0 .1 0 .2-.1.3l-.9.6-.4-.5-.7-.2-.5.4c-.2-.1-.4-.3-.6-.5zm2.9-1.9l.2-.1v.1h-.2zm-1.7 3.1h-.3V29h.3v.1zm2.3 60.4h-1.2l-.7.3-1.3-.4-.6.3-1.8-.3c-.2-.1-.2-.3-.1-.5 0-.1.1-.1.1-.1.2-.1.5-.2.7-.3l.6.3c.7-.3 1.5-.3 2.2-.1l1.5.3c.3 0 .5.1.7.4 0 0-.1 0-.1.1zm.2-62c-.4-.2-.4-.2-.4-.6.3.1.5.1.6.5l-.2.1zm.7-3.5c-.3-.1-.2-.3-.1-.6l.4.1c0 .2-.1.4-.3.5zm.2-1.4c-.3-.2.2-.6-.2-.7l-.5.3-.3-.6c-.4-.2-.3.4-.7.3-.2-.3.2-.4.2-.6.5-.1.9 0 1.4.2l.7-.2.7.6c.3 0 .1-.3.3-.5.2-.1.1.1.1.1v.7h-.3l-.3.4c-.2.1-.3.1-1.1 0zm1.1.7h-.3v-.1l.3.1zm1 2.7l-.4.4-.6-1c.6-.3 1.1.1 1.6.2.1 0 .2.2.4.3-.3.3-.6.1-1 .1zm1.5-3.5l-.7.4-1.2-.3v-.5l.4-.2.4.2.3-.2.8.1v.5zm.7 1.8l.1-.1-.1.1zm.1-.2l.1-.1c.1.1 0 .1-.1.1zm1.4 1.6h-.9l-.2-.3 1-.1.4.3c-.2.1-.2.2-.3.1zm-.3-1.7zm1.2.3c-.1 0-.2 0-.3-.1 0-.1.1-.2.1-.2.1 0 .2 0 .3.1-.1 0-.1.2-.1.2zm1 68.7l-.4-.3.3-.3.6.3-.5.3zm.6-68.8l.1-.3c.4 0 .7.1 1 .4-.4 0-.8.1-1.1-.1zm2.7-.6h-.3v-.1l.3.1zm2 5.4h.3v.3l-.3-.3zm.3-4.7c-.4-.1-.3-.7-.9-.6v.6l-.5.1-.6-1.1.7-.1c.3-.2 0-.4 0-.6l.3-.2v-.1c-.3-.1-.7-.2-1-.3h-1.3c0 .1.1.2.2.2.2.1.5.3.7.4-.2.4-.2.4-.8.2l-.9.2 1 .3-.1.3c-.3.2-.7.1-1-.1v-.8h-.3l-.2-.2c0-.2 0-.4.1-.7-.5.1-.6.6-.8.8-.5.4-1.1.2-1.6.3-.1.1-.2.1-.3 0-.4-.3-.8-.2-1.3-.2l-.5.6c-.2.1-.4.1-.5-.2l.5-.4v-.5l.5-.3c.4.2.8.2 1.2.1l.3-.4.5.7.6-.3c.1-.3.1-.6.2-.9.2-.1.4-.1.5-.1.7.1 1.3.1 2-.1.5-.1 1-.2 1.5-.1.5 0 .9.1 1.4.2.4.1.8.2 1.2.2.1.2.3.4.4.6.1.2.2.4.2.7.2.2.4-.1.7-.1l.5.3-1.1.4c-.1.2-.2.4-.3.7l-.8-.2-.4.7zm.6 2.9c-.1-.2 0-.3.7-.3 0 .1.1.2.1.3-.3.2-.6 0-.8 0zm2.2-2.6c-.4 0-.7.1-1.1.1l-.6-.3c.1-.1.1-.2.1-.2.5-.1.9-.1 1.4-.2.2-.2-.1-.3 0-.6l.3-.7.8-.1c-.2.2-.3.4-.4.5v.9l.9.4c-.1.1-.1.1-.2.1-.4.1-.8.1-1.2.1zm1.2 4.7c-.2-.1-.2-.4-.1-.5l.1-.1.3.2-.3.4zm1 65.5l.1.2-.1-.2zm.4-65.3l-.8-.6 1-.5.4.5-.6.6zm1.4-1.4c-.2-.1-.2-.3-.1-.4l.1-.1.3.2-.3.3zm.7.2l.1.3h-.1v-.3zm0 67.4c.2-.4.2-.4.6-.1-.2.3-.2.3-.6.1zm1.5-67.8l-.1-.3h.1v.3zm2.4.2c-.3.1-.4-.2-.6-.5.1-.2.2-.3.3-.4.3-.1.5-.1.7.2.1.3-.2.6-.4.7zm2.2-5v.3c-.2.2-.4.3-.6 0 .2-.2.4-.3.6-.3zm.7 5l-.6-.2-.5.3-.5-.2c.2-.4.6-.5.8-.7l.3.1c.2.1.4-.3.7-.1-.1.3-.1.6-.2.8zm1.4-2.7l-.1-.3h.1v.3zm2.2-.4l.9-.4.2.3c-.7.3-.7.3-1.1.1zm4.9 1.3c-.3.1-.4-.1-.7-.2l-.6.3-.4-.4c0-.1.1-.1.2-.2h.1c.5 0 1 0 1.5-.2.1.4.1.4-.1.7zm2-2.8c.1-.1.3-.1.4.1-.3.3-.3.3-.4-.1zm3.1 2.7l-.7-.2-.6.2v-.8l.8-.8c.2-.1.4.1.5.4 0 .1-.1.3-.2.5.1.1.2.3.4.4l-.2.3zm-.3-6.2v-.2l.6-.3c.3.2.7.2.9.6-.7.5-1.1-.1-1.5-.1zm2.3 5l-.2-.2c0-.3.2-.5.4-.7.2-.1.4-.1.5.2 0 .4-.3.7-.7.7zm.6-3.9l.5-.1c-.1.3-.3.3-.5.1zm4 2.7zm2.6.3l-.4-.5.7-.4c.2 0 .4.1.5.3-.2.4-.5.4-.8.6zm1.1-4.8c-.2 0-.5.1-.7.2-.2.1-.4.3-.6.4-.1 0-.2.1-.3.1 0 0 0-.1-.1-.1.5-.6 1.1-.9 1.9-1-.1.1-.2.2-.2.4zm2.4 4.5c-.1-.3 0-.4.3-.5l.6.3c-.3.5-.6.2-.9.2zm13.6-1.8zm-2.2-.9s.1 0 0 0c.1.1 0 .2 0 .3l-.1-.1c0-.1 0-.1.1-.2zm-2.2-.5c.2.1.2.3.1.5-.5-.2-.5-.2-.1-.5zm-5.5 7.5l.2-.1v.1h-.2zm.5-3.7l-.7-.5c-.1 0-.2 0-.3.1-.4.1-.7.1-1.1 0l-.6-.9c.1-.2.2-.3.3-.4.7-.2 1.4.2 2-.2l1.2.4h1.5l.7-.4.3.2v.1l-.4.4h-.6l-.3.6c-.3.3-.6.2-.9.3s-.7.2-1.1.3zM779 28c-.3.1-.6.2-.9.2h-.8c-.3 0-.5.1-.8.1l-.2-.3c.1-.1.1-.2.2-.2.8-.1 1.7-.2 2.5-.3h.9c-.4.5-.6.5-.9.5zm.6-5.5l.3-.3.2.3c-.2.2-.4.2-.5 0zm.5-1.4s.1 0 0 0h.3-.3zm2.1 7.4c-.6-.1-1.3.2-2-.4l.7-.8c.6-.2 1.2-.1 1.7.3v.5l-.4.4zm1.9-4.5l-1.7.2-.4-.2.4-.5 1.1-.3.7.4c-.1.1-.1.2-.1.4zm.9 69.7l.1.4c-.2 0-.2-.1-.1-.4zm-.3-68.2c-.1-.2-.2-.3-.3-.4l.4-.4v-.2c.4-.1.8-.1 1.2.1-.2.6-.5.8-1.3.9zm2.5-2.3l-.7.6c-.7 0-1.4.1-2-.6l.2-.3h2.2c.1 0 .1.1.2.1l.1.2zm1 .2c.4 0 .7-.1 1 .3l-.2.3-1.1-.4c.2 0 .2-.1.3-.2zm-.1 4.5c-.1-.2 0-.2.1-.2l-.1.2zm.2-.2c0-.1 0 0 0 0zm-.6-2.8c0-.4.3-.4.4-.6l1.3.3c-.1.4-.3.5-.6.7-.3 0-.7-.1-1.1-.4zm1.2 3.9l.7-.7c-.2.7-.2.7-.7.7zm1.2-.2c.1-.1.1-.2.2-.4l1 .1c-.4.3-.7.6-1.2.3zm1.3-.1c.6-.5.6-.5 1-.3-.1.4-.4.2-1 .3zm2.4-3c-.3.1-.7.1-1 0l.9-.4.2.2s0 .1-.1.2zm2.3-2.4c-.1-.2.1-.3.2-.3.1.3 0 .3-.2.3zm1.6-.7c-.3.1-.5-.1-.6-.3V22c.1-.4.5-.3.8-.2l.2.3c-.2.1-.3.2-.4.3zm10-1.5c-.1-.1-.1-.3-.2-.4.2-.2.2-.2.8.3-.2.2-.2.2-.6.1zm7.9 58.2c-.2-.2-.6-.4-.7-.9.6-.4 1.1-.1 1.6-.1l.1.5c-.3.3-.7.5-1 .5zm1.8-59.3l-.4-.3.2-.4.9.4-.7.3zm27.5.8l.1.3h-.1v-.3zm-2.7.8c.3-.2.7-.2 1 .1-.1.1-.1.2-.2.3h-.9l.1-.4zm2.7 1.8s0 .1 0 0c-.7.2-1.4.5-1.9.9l-1.2.1c0 .1.1.2.1.3l.9.2c-.3.6-.9.1-1.3.4-.4.1-.9.2-1.3.2-.2-.1-.2-.2-.1-.4 0-.2.1-.5.1-.8l-.6-.3.1-.4c.9-.4 1.9-.7 2.8-.8l.4.2 1.7-.1.2.2c.2.2.1.2.1.3zm5.8-3.4c.5 0 1 0 1.4.1.1.2.1.4-.1.4-.4.2-.9.3-1.4.1-.1 0-.2-.2-.3-.3.2 0 .3-.1.4-.3zm-4.9 4.7c.2-.1.4-.3.5-.3.4 0 .8 0 1.2-.1l.2.4c-.6.2-1.3.2-1.9 0zm5-1c-.2.1-.3.3-.4.3l-1.2.3-.6-.4-.5.1-1.2-.3c-.2-.3-.5-.4-.9-.6v-.4c0-.1.2-.1.3-.1.7 0 1.5-.1 2.2-.2.7-.1 1.4-.1 2.1-.1.3 0 .5-.1.8-.1h.6c.2.1.2.3.1.5-.2.5-.7.9-1.3 1zm3.2-.7l-.2.3c0 .4.6.3.6.7 0 0-.1.1-.2.1-.3 0-.5 0-.8.1-.3.1-.7.2-1.2.4l-.4-.4.3-.4 1.1-.1-.5-.4c-.2-.3-.2-.6 0-.9.7-.2 1.5-.4 2.2-.4l.3.3c-.3.4-.3.4-1.2.7zm9.6 46.1s0-.1 0 0v-.3l.1.1c0 .1 0 .2-.1.2zm2.6-44.6l-.7.1c.2-.6.3-.6 1-.3-.1.1-.2.2-.3.2zm4.4 44.4l-1.9 1.1c-.3.3-.3.7-.8.8l-.5-.4c0-.5.5-.6.8-.9-.2-.4-.6-.7-1-.9-.1-.2 0-.4.2-.5.2-.1.5-.3.7-.4l1.7-.2 1.1.6c0 .2-.1.5-.3.8zm3.1-46.9l.4.5c0 .2-.2.5-.4.6-.4.1-.8 0-1.1-.1-.6-.2-1.2-.2-1.8 0h-1c-.6 0-1.2-.1-1.9-.3 0-.1.1-.2.1-.3l1.6-.1c0-.1-.1-.2-.1-.2s-.3-.1-.4-.2l-1.8.4V22l-1.3.6-.4-.2c-.5 0-1 .1-1.5.2-.4.1-.7-.2-1 .1-.3.3-.8-.1-1.2 0-.4 0-.8 0-1.2-.1l-.6.1-1.5-.6v-.2l.2-.2c1.1-.4 2.2-.5 3.3-.5h.5c1.2-.2 2.3-.3 3.5-.2.2.3-.4.5 0 .9l.7-.3.3-.5c.2-.2.6-.1 1.4.1l.5-.5c.1-.1.1-.1.2-.1.2.1.5.2.7.2.6-.1 1.2-.1 1.8-.1.8-.1 1.5 0 2.3.1l.3.3-.6.7zm1.2 47.2l-.3-.3.2-.3h.9c.1.1.1.2.2.3-.2.3-.6.4-1 .3zm27.6-50.6c.2.1.5.3.7.4.3.1.5.1.8.1-.1.3-.1.3-.3.4-.4-.1-.9-.2-1.4-.1-.3 0-.5-.2-.6-.4l.8-.4zm-.4 3.5c-.1-.1-.2-.2 0-.4.1.2.2.3 0 .4zm-10.7-.5c.8-.4 1.5.1 2.2.2-.8.2-1.6.2-2.4 0 .1 0 .2-.1.2-.2zm-2.2-3.8c.3-.1.5.1.7.2.1.1.2.1.3.2l-.2.3c-.4.1-.7-.2-1.1-.4l.3-.3zm-4.2-.3zm-2.1.4c.2 0 .5 0 .7-.2.3-.2.7-.2 1 0 .2.4-.2.5-.3.7l.5.2c-.5.5-1 .3-1.5.3l-.3-.3c0-.1.1-.2.1-.2 0-.1-.4-.2-.3-.4.1 0 .1-.1.1-.1zm-.5.7h.3v.1l-.3-.1zm-3 48.6l-.5.1c-.5-.4-.5-.4-.6-.8.1-.1.2-.1.3-.1h.6c.1.1.1.3.2.4v.4zm4.7-44.9l-.3.2.1.5c-.1.2-.2.5-.3.7l-.9.4c-1-.3-2.1-.3-3.2-.2l-.1.3c-.6.2-1.1-.2-1.7-.3-.3-.1-.5-.3-.6-.6.1-.2.1-.4.2-.8 0-.1 0-.3-.1-.5l.7-.4c.7.2 1.4-.2 2.2 0v.6c.3.2.5-.1.8-.2.8.1 1.6 0 2.3-.2l.8.2c.1.2.2.2.1.3zm.1-.1l.1-.1.1.1h-.2zm.3 0h.4c-.2.2-.3.1-.4 0zm1.3 43.5c-.2-.1-.2-.3-.1-.4.1-.1.3-.2.5.1l-.4.3zm5.6.1c-.5 0-.9-.1-1.4-.3V65h1.5c.2.2.3.4-.1.6zm-1.1-39.7c.6-.2 1.1-.2 1.7-.1-.5.3-.5.3-1.7.1zm2.3 35.6c-.1-.2-.2-.4-.4-.6s-.2-.3-.4-.5c.9-.1 1.8-.1 2.7 0l.3.2c0 .3-.1.5-.1.7l-1.3.5-.8-.3zm2.2 3.4c-.2.2-.3.4-.5.7-.4 0-.8-.3-.8-.8l1-.3.3.2c.1.1.1.2 0 .2zm2.3-41.7h-.5l-.5.5-.8-.5-.5.5-.9.3c-1.3-.4-2.6.1-3.9-.3l-.6.5h-1.2l-.8-.7c-.3.1-.6.2-.9.2-.5 0-1.1-.1-1.5-.2-.2-.2-.2-.4-.1-.6.4-.3 1 .1 1.5-.2 0-.5-.5-.4-.8-.6.8-.1 1.7-.1 2.5.1.9.1 1.8.1 2.7.1-.3-.3-.6-.4-1-.3-.5.1-1 0-1.5-.1s-1.1-.1-1.7-.2l-.3-.3c.7-.4 1.5-.5 2.3-.4.8 0 1.5.1 2.3.3.4.2.1.6.2.8.1.1.1.1.2.1h2c1.2.1 2.5.2 3.7.2h.7c1.1 0 2.1.2 3.2.5.2 0 .3.2.4.3 0 .3-.1.5-.4.6-.7.2-1.4.3-2.1.2-.5-.1-.9-.2-1.4-.3-.2-.1-.3-.3-.3-.5zm5.3 41.3l-.4.6c0 .2 0 .5-.1.8-.7.7-1.5 1.2-2.4 1.4-.5-.3-1.1 0-1.7-.2l-.4-1c.8-.1 1.6-.3 2.4-.7.7-.4 1.3-.9 1.8-1.5l1-.3c.3 0 .5 0 .6.4l-.8.5zm2.2-40c-.5.2-1 .1-1.4-.3.6-.1 1-.5 1.6-.2l-.2.5zm2.8-2.4s0-.2.1-.2.3 0 .3.2-.3.2-.4 0zm2.1.2c.2-.3.2-.3.4 0-.2.2-.3.1-.4 0zm2.4-2.3c-.8.1-1.5.1-2.3 0 .7-.5 1.6-.7 2.5-.6-.1.2-.2.4-.2.6zm9.7-.6c.3 0 .5.1.7.4-.4.3-.8.1-1.2.1-.1 0-.2-.2-.4-.3.4-.4.7-.3.9-.2zm-1.5 45.2c-.1 0-.1.1-.2.1-.3.1-.7 0-.9-.2.3-.5.6-.8 1-.7.2.2.3.5.1.8zm2.2-2.3h-.9c.4-.3.7-.5 1.1-.3l-.2.3zm0-37.4l-.5.4c-.2 0-.5 0-.7-.1-.7-.3-1.5-.4-2.2-.3-.5.1-1.1-.1-1.5-.4.1-.1.1-.2.2-.2l1.1-.5c.4-.1.9.2 1.5 0l.6.8c.4-.1.8-.4 1.4-.2l.4.3c.2.1.5-.2.6.1-.3.2-.7 0-.9.1zm2.2-.3l.2-.1v.1h-.2zm4.3.2l-.6-.1c-.2.1-.3.3-.6.4l-.4-.3c-.1-.3 0-.6.1-.8l.8.1.7.1.3.3-.3.3zm9.7.3c-.1 0-.1-.1-.2-.1s.1-.1.1-.1c.1 0 .1 0 .2.1 0 0-.1 0-.1.1zM951 61.6c-.3.1-.6-.1-.7-.4 0-.1.1-.3.2-.4.3-.2.4.2.7.2l.6-.1.2.3c-.4.4-.7.3-1 .4zm3.7-37.6l-.2-.1c0-.3.2-.4.5-.2-.2 0-.2.1-.3.3zm.7.1c0-.2.1-.3.3-.2s.1.1.1.2h-.4zm13.1-5c-.3-.1-.3-.3-.2-.5s.1-.1.4 0c0 .2 0 .4-.2.5zm8.5-1.9c0 .1-.1.2-.2.2-.3.1-.5.1-.6-.1s.2-.4.4-.6h.5c0 .2-.1.3-.1.5zm25.6 6.4c.1-.1.1-.2.2-.3.1 0 .1-.1.2-.1.3 0 .5.1.7.4-.5.4-.6.4-1.1 0zm3.1.8l.2-.3c.3-.1.5.1.6.3h-.8zm1.7-1.3c-.5.1-.7 0-.9-.3l.9-.3.2.3-.2.3zm10.6-5.4l.2.3c-.4.3-.7.1-1.2.1.2-.3.5-.5 1-.4zm5.1 6.9c-.3.1-.7-.3-1 0l-1.5-.3c-.5-.2-.9.3-1.4-.2v1l-.3.4-1.2-.3c.2-.4.7-.6.7-1.1h-.8c-.2 0-.5-.1-.7-.1l-.4.6-.6.2c.1.2.2.3.4.5 0 .1-.1.2-.1.3l-1-.2-.6.2-.8-.7c.1-.1.2-.1.3-.2.3 0 .6-.1.8-.1-.1-.2-.2-.4-.4-.7l-.6.5-.9.1c-.4-.5-1.3-.6-1.5-1.3.2-.4.6-.1 1-.2l.2-.2c-.1-.2-.1-.4-.2-.6 0-.2.1-.2.2-.2h.8c.1 0 .3.1.3.1.4-.2.9-.1 1.3.1.2 0 .4.1.6.1.5.2.3.6.5.9.5 0 .9.3 1.5.1.1-.1.1-.2.2-.2.3-.1.4.3.5.3.3 0 .5.1.8.1.2 0 .5 0 .7-.1 1.9.6 1.9.6 2.7.4l.6.3h.3c-.1.2-.2.3-.4.5zm7.1-1c-.2.4-.5.3-.8.2l-.1-.3c.2-.2.5-.1.9.1zm-5.1 52.1c-.2.2-.3.4-.6.4-.4-.2-.4-.7-.7-1l.5-.4c.4 0 .6.2.8.4v.6zm.6-50.8c-.3-.2-.7.1-1-.2l-.2-.2c-.1-.2.1-.3.2-.3.3-.2.4-.5.3-.9l.9-.3c.3.2.6.3.6.8l-.7.3c.3.4.6 0 .7 0l1.4.4c0 .1 0 .2.1.3l-.7.1c-.1 0-.3.1-.3.1-.5-.4-.9-.1-1.3-.3v.2zm1.2 1.5c.2-.4.6-.3.8-.5.5.1.8.2.8.7-.6.2-1.2 0-1.6-.3v.1zm2.5-1.3l-.7.1-.3-.3c.1-.1.1-.2.2-.2l1.9.1c.1.1.1.2.2.3-.5.2-1 .1-1.3 0zm1.1 1.7h-.4c.1-.5.1-.5.8-.7l-.4.7zm2.6-2.7c-.4.2-.9.3-1.3.1 0-.1-.1-.1-.1-.2v-.3c.2-.4.6-.3.9-.4.6-.1 1.3 0 1.9.4v.9c-.8.2-1.1-.4-1.4-.5zm14.1 1.6l-.3-.4c-.3-.1-.3.3-.6.3-.2 0-.6.1-.8-.4l.7-.6h.5c.4.1.8.3 1.2.4-.1.3-.3.5-.7.5v.2zm17.8-.6c-.1.1-.2.1-.3.1-.2-.2-.5-.4-.7-.5-.2-.2-.5-.3-.7-.4.6-.3.8-.3 1.1-.2.4.1.6.4.7.8-.1.1-.1.1-.2.1l.1.1zm1.9 60.4c-.6 0-1.1-.2-1.6-.5.1-.2.3-.1.5-.1l1.2.3-.1.3zM134.1 16.7z"/><path class="st0" d="M266.9 16.4l.2-.5-.2-.1v.6zm747.2 6.7l.3.3.4-.4-.2-.5c-.2.2-.5.2-.5.6zm-880-6.4h-.5c.3.2.4.2.5 0zm56.5.9l.2-.4-.4-.3c-.1.3-.2.5.2.7zm687.2 4.7c.3.1.3.1.5 0-.1-.1-.4-.1-.5 0zm1.4-.1l.2.2.5-.3c-.3-.1-.5-.2-.7.1zm-745-5.5c.2 0 .4.1.6-.1-.3-.2-.5-.2-.6.1zm431.4 4c.2.1.3 0 .3-.1-.1-.1-.2-.1-.3.1zm140.6-2c-.3-.1-.3-.1-.5 0 .2.2.4.2.5 0zm-127.3 2.5l.4.1c0-.2-.1-.3-.4-.1zm-19.4-.4c.2-.1.3-.1.5-.2.1-.1.3 0 .3-.3-.4 0-.6.1-.8.5zm166.7 1.5c-.2-.1-.3 0-.3.2v.2c.1-.1.2-.2.3-.4zm.1-.4h.5c-.1-.1-.3-.2-.5 0zm-22.3-.6s0 .1 0 0c.1.1.1-.1.1-.2h-.1v.2zm-.5.2c0-.1.1-.2.2-.5l-.7.1c.2.2.2.4.5.4zm-.1-1.1l.3.4.4-.2v-.3l-.7.1zm-.8-.2h.3v-.1l-.3.1zm282.9-4zm-281.1.8l-.2-.1c0 .1 0 .2.2.1zm282.5-.9l.2-.4c-.6-.2-1.2 0-1.8-.1l.2.7.6.2.8-.4zm-256.5 4.1l.4.1c-.1-.2-.2-.2-.4-.1zm16.7-.3c-.1-.3-.3-.3-.6-.2v.3c.2 0 .4.1.6-.1zm-23.9-.9l.1-.3c-.1-.2-.3-.5-.6-.5l-.3.1c-.1.3.2.4.4.6-.1.3-.2.5-.3.8l.6-.2.8.2v-.3l-.7-.4zm229.5.5zm0-.1v.1l.1-.1h-.1zM649.6 18h-.3v.1l.3-.1zm3.9.5l.1-.1c-.1 0-.2 0-.1.1zm-1.8 0c.2-.1.4-.3.5-.3.4-.2.7.1 1.1-.3-.7.1-1.3 0-1.9 0-.1 0-.3.1-.4.1-.1.2-.2.3-.3.5.4.1.7-.1 1 0zm-189.2-2.8c-.3-.3-.4 0-.6.2.3.1.5.1.6-.2zM95.6 12h-.3.3zm558 6.2v.2l.4-.4c-.3-.1-.4 0-.4.2zm50.5-1.4l.1.1c0-.1 0-.2-.1-.1z"/></svg>
